<?xml version="1.0" encoding="UTF-8"?>
<svg id="_Слой_2" data-name="Слой 2" xmlns="http://www.w3.org/2000/svg" viewBox="0 0 62.42 60.51">
  <g id="_Слой_1-2" data-name="Слой 1">
    <g isolation="isolate">
      <path d="M27.04,15.29c.98,1.84,1.84,3.73,2.53,5.65-.87-1.16-1.74-2.33-2.61-3.49-.69-1.91-1.55-3.81-2.53-5.65-.74-1.38-1.55-2.67-2.43-3.84l2.61,3.49c.88,1.17,1.69,2.46,2.43,3.84Z" fill="#a684ff" stroke-width="0"/>
      <path d="M29.57,20.93h0c-.87-1.16-1.74-2.32-2.61-3.49,0,0,0,0,0,0h0c.87,1.16,1.74,2.33,2.61,3.49,0,0,0,0,0,0Z" fill="#a684ff" stroke-width="0"/>
      <path d="M29.57,20.93c.71,1.93,1.31,3.57,1.78,4.89l-2.61-3.49s0,0,0,0c.87,1.16,1.74,2.32,2.6,3.48-.87-1.16-1.74-2.32-2.6-3.48-.47-1.32-1.07-2.96-1.78-4.89.43.58.87,1.16,1.3,1.74.05.07.12.16.17.23.1.14.24.32.34.45.05.07.12.16.17.22.1.13.23.3.32.43.09.12.23.27.31.41Z" fill="#a684ff" stroke-width="0"/>
      <path d="M22.8,7.37l2.61,3.49c.9,1.21,1.74,2.54,2.5,3.95,1.01,1.89,1.88,3.82,2.6,5.77.71,1.94,1.3,3.58,1.78,4.93l-2.61-3.49c-.48-1.35-1.07-2.99-1.78-4.93-.72-1.95-1.59-3.89-2.6-5.77-.76-1.42-1.59-2.75-2.5-3.95Z" fill="#737373" stroke-width="0"/>
      <path d="M29.68,22.02l2.61,3.49c.04.15.12.35.21.6l-2.61-3.49c-.1-.25-.17-.45-.21-.6Z" fill="#737373" stroke-width="0"/>
      <path d="M55.51,4.08l2.61,3.49c-.59-.79-1.3-1.47-2.12-2.02-1.07-.7-2.47-1.06-4.18-1.06-2.01,0-3.81.41-5.33,1.23-1.55.83-2.92,1.93-4.07,3.26-1.17,1.36-2.19,2.9-3.05,4.61-.85,1.71-1.58,3.47-2.15,5.21l-2.61-3.49c.57-1.73,1.3-3.49,2.15-5.21.85-1.71,1.87-3.25,3.05-4.61,1.16-1.33,2.53-2.43,4.07-3.26,1.52-.82,3.32-1.23,5.33-1.23,1.72,0,3.12.36,4.18,1.06.82.55,1.53,1.23,2.12,2.02Z" fill="#737373" stroke-width="0"/>
      <path d="M31.56,26.45c.1.28.21.56.34.83-.77-1.03-1.54-2.05-2.31-3.08l-.3-.41c-.12-.27-.24-.55-.34-.83-.1-.27-.17-.48-.21-.63l2.61,3.49c.04.15.12.36.21.63Z" fill="#a684ff" stroke-width="0"/>
      <path d="M29.9,22.62l2.61,3.49c.09.25.19.5.3.75l-2.61-3.49c-.12-.25-.21-.5-.3-.75Z" fill="#737373" stroke-width="0"/>
      <path d="M32.01,27.51c-.87-1.16-1.74-2.33-2.61-3.49-.04-.07-.08-.15-.11-.23l2.61,3.49c.03.08.07.16.11.23Z" fill="#a684ff" stroke-width="0"/>
      <path d="M32.01,27.51c.07.14.16.27.25.39l-2.61-3.49c-.09-.12-.17-.25-.25-.39.87,1.16,1.74,2.33,2.61,3.49Z" fill="#a684ff" stroke-width="0"/>
      <path d="M33.07,27.33l-2.61-3.49c-.1-.13-.19-.28-.26-.46l2.61,3.49c.08.17.16.33.26.46Z" fill="#737373" stroke-width="0"/>
      <path d="M32.26,27.9l-2.61-3.49c.05.06.1.13.15.19.26.31.55.46.83.46.47,0,.79-.41,1.26-1.57.34-.85.7-1.84,1.06-2.94.37-1.1.7-2.19.99-3.21.36-1.25.54-1.77.65-2.03l2.61,3.49c-.11.26-.29.78-.65,2.03-.29,1.02-.62,2.11-.99,3.21-.36,1.1-.72,2.09-1.06,2.94-.47,1.16-.8,1.57-1.26,1.57-.29,0-.57-.15-.83-.46-.05-.06-.1-.12-.15-.19Z" fill="#737373" stroke-width="0"/>
      <polygon points="22.63 36.68 25.24 40.17 25.01 41.99 22.4 38.51 22.63 36.68" fill="#a684ff" stroke-width="0"/>
      <polygon points="22.63 36.68 25.24 40.17 25.96 41.85 23.35 38.36 22.63 36.68" fill="#737373" stroke-width="0"/>
      <path d="M21.99,7.96l2.61,3.49c-.28-.38-.58-.75-.87-1.11-1.17-1.4-2.46-2.32-3.85-2.71-.84-.23-1.72-.44-2.61-.6-.86-.16-1.73-.24-2.58-.24-1.19,0-2.35.16-3.39.51-.99.33-1.9.95-2.7,1.83-.69.74-1.29,1.7-1.79,2.88-.53,1.21-.96,2.55-1.33,3.99-.36,1.44-.66,2.94-.91,4.48-.24,1.52-.43,3.03-.58,4.5-.15,1.45-.25,2.81-.3,4.02-.05,1.24-.08,2.26-.08,3.07,0,2.69.31,5.61.97,8.7.64,3.09,1.57,5.96,2.74,8.55.86,1.92,1.84,3.61,2.92,5.05l-2.61-3.49c-1.08-1.44-2.06-3.13-2.92-5.05-1.17-2.59-2.09-5.46-2.74-8.55-.65-3.09-.98-6.01-.97-8.7,0-.81.03-1.83.08-3.07.05-1.21.15-2.57.3-4.02.15-1.46.34-2.98.58-4.5.25-1.54.55-3.04.91-4.48.36-1.44.8-2.77,1.33-3.99.5-1.19,1.1-2.15,1.79-2.88.8-.88,1.71-1.5,2.7-1.83,1.04-.35,2.2-.51,3.39-.51.85,0,1.72.08,2.58.24.9.16,1.78.37,2.61.6,1.38.4,2.67,1.31,3.85,2.71.3.36.59.73.87,1.11Z" fill="#737373" stroke-width="0"/>
      <path d="M24.45,47.28h0c-.87-1.16-1.74-2.32-2.61-3.49,0,0,0,0,0,0,.18-1.93.36-3.71.56-5.29l2.61,3.49c-.19,1.58-.38,3.36-.56,5.29Z" fill="#a684ff" stroke-width="0"/>
      <path d="M29.34,48.77l-2.61-3.49c-.24-.32-.47-.66-.69-1.02-.61-.97-1.12-2.01-1.53-3.08-.43-1.1-.81-2.05-1.15-2.82l2.61,3.49c.34.77.72,1.71,1.15,2.82.42,1.07.93,2.11,1.53,3.08.22.36.45.7.69,1.02Z" fill="#737373" stroke-width="0"/>
      <path d="M60.43,42.71h0c-.87-1.16-1.74-2.32-2.61-3.49,0,0,0,0,0,0,.65-3.33.99-6.89,1-10.58,0-2.54-.04-5.15-.15-7.77-.11-2.59-.29-5.22-.51-7.78-.14-1.45-.36-2.93-.66-4.39-.29-1.43-.79-2.73-1.47-3.87-.16-.27-.33-.53-.52-.77l2.61,3.49c.18.25.36.5.52.77.68,1.14,1.18,2.44,1.47,3.87.3,1.46.52,2.94.66,4.39.22,2.56.4,5.18.51,7.78.11,2.61.16,5.23.15,7.77-.01,3.69-.35,7.25-1,10.58Z" fill="#a684ff" stroke-width="0"/>
      <path d="M56.3,3.47l2.61,3.49c.21.28.4.57.58.87.74,1.24,1.28,2.64,1.59,4.17.31,1.5.54,3.02.68,4.51.22,2.58.4,5.21.51,7.82l-2.61-3.49c-.11-2.61-.29-5.24-.51-7.82-.14-1.49-.37-3.01-.68-4.51-.32-1.54-.85-2.94-1.59-4.17-.18-.3-.37-.59-.58-.87Z" fill="#737373" stroke-width="0"/>
      <polygon points="38.77 35.8 41.38 39.28 40.73 40.77 38.12 37.29 38.77 35.8" fill="#a684ff" stroke-width="0"/>
      <polygon points="38.77 35.8 41.38 39.28 41.67 40.88 39.06 37.39 38.77 35.8" fill="#737373" stroke-width="0"/>
      <path d="M11.38,55.76c-.39-.44-.77-.9-1.14-1.39l-2.61-3.49c.37.49.75.96,1.14,1.39,1.47,1.63,3.06,2.46,4.72,2.46.87,1.16,1.74,2.32,2.61,3.49-.87-1.16-1.74-2.33-2.61-3.49,2.07,0,3.65-.52,4.73-1.55.87,1.16,1.74,2.33,2.61,3.49-.87-1.16-1.74-2.33-2.61-3.49,1.12-1.06,1.96-2.42,2.51-4.04h0s0,0,0,0c0,0,0,0,0,0,0,0,0,0,0,0,.08.11.19.25.27.35.04.06.1.13.14.19.24.32.49.65.73.97.49.66.98,1.31,1.48,1.97l-2.61-3.49c.56-1.64.94-3.44,1.11-5.34.87,1.16,1.74,2.33,2.61,3.49-.17,1.9-.54,3.7-1.11,5.34-.55,1.62-1.39,2.98-2.51,4.04-1.08,1.03-2.67,1.55-4.73,1.55-1.66,0-3.25-.83-4.72-2.46Z" fill="#a684ff" stroke-width="0"/>
      <path d="M30.63,50.24c-.45-.43-.89-.92-1.29-1.46l-2.61-3.49c.4.54.84,1.03,1.29,1.46.87,1.16,1.74,2.33,2.61,3.49Z" fill="#a684ff" stroke-width="0"/>
      <path d="M9.46,55.01l-2.61-3.49c.38.5.77.98,1.17,1.43,1.66,1.84,3.5,2.78,5.46,2.78,2.33,0,4.15-.62,5.43-1.83,1.23-1.18,2.17-2.67,2.77-4.44.59-1.72.98-3.6,1.16-5.58.1-1.18.22-2.31.34-3.36l2.61,3.49c-.12,1.05-.23,2.18-.34,3.36-.18,1.98-.57,3.85-1.16,5.58-.6,1.77-1.54,3.26-2.77,4.44-1.27,1.21-3.1,1.83-5.43,1.83-1.96,0-3.8-.94-5.46-2.78-.4-.45-.79-.92-1.17-1.43Z" fill="#737373" stroke-width="0"/>
      <path d="M37.63,47.26c-.31.53-.64,1.02-.98,1.48-.87-1.16-1.74-2.33-2.61-3.49.35-.46.68-.95.98-1.48.66-1.12,1.27-2.3,1.78-3.5.53-1.22.97-2.22,1.31-2.98l2.61,3.49c-.34.76-.78,1.76-1.31,2.98-.52,1.2-1.12,2.38-1.78,3.5Z" fill="#a684ff" stroke-width="0"/>
      <path d="M32.95,51.18c-.88,0-1.63-.31-2.32-.94-.87-1.16-1.74-2.33-2.61-3.49.68.63,1.43.94,2.32.94.93,0,1.74-.36,2.5-1.09.42-.4.82-.86,1.2-1.36.87,1.16,1.74,2.33,2.61,3.49-.38.5-.78.95-1.2,1.36-.76.73-1.57,1.09-2.5,1.09Z" fill="#a684ff" stroke-width="0"/>
      <path d="M28.53,49.36l-2.61-3.49c.44.59.92,1.13,1.42,1.6.86.8,1.87,1.21,3,1.21s2.27-.46,3.2-1.36c.87-.84,1.66-1.87,2.36-3.05.69-1.16,1.3-2.37,1.84-3.61.23-.5.43-.96.61-1.39l2.61,3.49c-.18.43-.38.89-.61,1.39-.53,1.24-1.15,2.45-1.84,3.61-.7,1.19-1.49,2.21-2.36,3.05-.93.91-2.01,1.36-3.2,1.36s-2.14-.41-3-1.21c-.5-.47-.97-1.01-1.42-1.6Z" fill="#737373" stroke-width="0"/>
      <path d="M43.71,56.42l-2.61-3.49c-.57-.76-1-1.62-1.31-2.59-.26-.85-.37-1.65-.32-2.37.05-.81.08-1.68.08-2.59,0-1.32-.02-2.67-.06-4-.04-1.33-.19-2.68-.43-3.99l2.61,3.49c.24,1.31.39,2.66.43,3.99.04,1.34.06,2.68.06,4,0,.91-.03,1.78-.08,2.59-.05.72.07,1.52.32,2.37.31.97.75,1.83,1.31,2.59Z" fill="#737373" stroke-width="0"/>
      <path d="M60.43,42.71c-.16.79-.32,1.56-.5,2.31-.87-1.16-1.74-2.33-2.61-3.49.18-.75.35-1.52.5-2.31.87,1.16,1.74,2.33,2.61,3.49Z" fill="#a684ff" stroke-width="0"/>
      <path d="M59.92,45.03c-.35,1.44-.74,2.79-1.17,4.05-.87-1.16-1.74-2.33-2.61-3.49.43-1.26.82-2.62,1.17-4.05.87,1.16,1.74,2.33,2.61,3.49Z" fill="#a684ff" stroke-width="0"/>
      <path d="M45.23,57.96c-.58-.45-1.09-.96-1.52-1.54l-2.61-3.49c.43.58.94,1.09,1.52,1.54,1.34,1.03,2.93,1.55,4.72,1.55.87,1.16,1.74,2.33,2.61,3.49-.87-1.16-1.74-2.33-2.61-3.49,1.44,0,2.84-.71,4.18-2.11.77,1.03,1.54,2.05,2.31,3.08.1.14.2.27.3.41-.87-1.16-1.74-2.33-2.61-3.49,1.4-1.45,2.65-3.45,3.7-5.92h0s0,0,0,0c-.01.1.09.12.13.17.14.18.28.37.42.55.09.12.2.27.29.39s.21.28.3.4c.49.66.98,1.31,1.48,1.97-.87-1.16-1.74-2.33-2.61-3.49.33-.76.63-1.56.92-2.41.87,1.16,1.74,2.33,2.61,3.49-.29.84-.6,1.65-.92,2.41-1.05,2.47-2.3,4.46-3.7,5.92-1.34,1.4-2.74,2.11-4.18,2.11-1.79,0-3.38-.52-4.72-1.55Z" fill="#a684ff" stroke-width="0"/>
      <path d="M49.2,1c1.72,0,3.12.36,4.18,1.06,1.08.73,1.96,1.66,2.64,2.79.68,1.14,1.18,2.44,1.47,3.87.3,1.46.52,2.94.66,4.39.22,2.56.4,5.18.51,7.78.11,2.61.16,5.23.15,7.77-.01,3.69-.35,7.25-1,10.58-.65,3.32-1.52,6.28-2.59,8.77-1.05,2.47-2.3,4.46-3.7,5.92-1.34,1.4-2.74,2.11-4.18,2.11-1.79,0-3.38-.52-4.72-1.55s-2.29-2.42-2.83-4.13c-.26-.85-.37-1.65-.32-2.37.05-.81.08-1.68.08-2.59,0-1.32-.02-2.67-.06-4-.04-1.33-.19-2.68-.43-3.99l-.29-1.6-.65,1.49c-.34.76-.78,1.76-1.31,2.98-.52,1.2-1.12,2.38-1.78,3.5-.64,1.1-1.38,2.06-2.19,2.84-.76.73-1.57,1.09-2.5,1.09-.88,0-1.63-.31-2.32-.94-.73-.69-1.4-1.53-1.99-2.49-.61-.97-1.12-2.01-1.53-3.08-.43-1.1-.81-2.05-1.15-2.82l-.72-1.68-.23,1.82c-.19,1.58-.38,3.36-.56,5.29-.17,1.9-.54,3.7-1.11,5.34-.55,1.62-1.39,2.98-2.51,4.04-1.08,1.03-2.67,1.55-4.73,1.55-1.66,0-3.25-.83-4.72-2.46-1.54-1.71-2.91-3.87-4.07-6.45-1.17-2.59-2.09-5.46-2.74-8.55-.65-3.09-.98-6.01-.97-8.7,0-.81.03-1.83.08-3.07.05-1.21.15-2.57.3-4.02.15-1.46.34-2.98.58-4.5.25-1.54.55-3.04.91-4.48.36-1.44.8-2.77,1.33-3.99.5-1.19,1.1-2.15,1.79-2.88.8-.88,1.71-1.5,2.7-1.83,1.04-.35,2.2-.51,3.39-.51.85,0,1.72.08,2.58.24.9.16,1.78.37,2.61.6,1.38.4,2.67,1.31,3.85,2.71,1.22,1.45,2.33,3.12,3.31,4.95.98,1.84,1.84,3.73,2.53,5.65.71,1.93,1.31,3.57,1.78,4.89.04.15.12.36.21.63.1.28.21.56.34.83.13.31.31.58.51.81.26.31.55.46.83.46.47,0,.79-.41,1.26-1.57.34-.85.7-1.84,1.06-2.94.37-1.1.7-2.19.99-3.21.36-1.25.54-1.77.65-2.03.57-1.73,1.3-3.49,2.15-5.21.85-1.71,1.87-3.25,3.05-4.61,1.16-1.33,2.53-2.43,4.07-3.26,1.52-.82,3.32-1.23,5.33-1.23Z" fill="#a684ff" stroke-width="0"/>
      <path d="M42.91,57.01l-2.61-3.49c.49.65,1.06,1.23,1.72,1.74,1.51,1.17,3.31,1.76,5.32,1.76,1.72,0,3.36-.82,4.91-2.42,1.48-1.55,2.79-3.65,3.9-6.22,1.1-2.56,1.99-5.58,2.65-8.97.66-3.39,1.01-7.01,1.02-10.76,0-2.56-.04-5.19-.15-7.81l2.61,3.49c.11,2.62.16,5.25.15,7.81-.01,3.75-.36,7.37-1.02,10.76-.66,3.39-1.55,6.41-2.65,8.97-1.11,2.58-2.42,4.67-3.9,6.22-1.54,1.6-3.19,2.42-4.91,2.42-2.01,0-3.81-.59-5.32-1.76-.66-.51-1.24-1.09-1.72-1.74Z" fill="#737373" stroke-width="0"/>
      <path d="M59.66,20.84c.11,2.62.16,5.25.15,7.81-.01,3.75-.36,7.37-1.02,10.76-.66,3.39-1.55,6.41-2.65,8.97-1.11,2.58-2.42,4.67-3.9,6.22-1.54,1.6-3.19,2.42-4.91,2.42-2.01,0-3.81-.59-5.32-1.76-1.51-1.16-2.58-2.71-3.18-4.62-.29-.96-.42-1.89-.37-2.73.05-.78.08-1.63.08-2.52,0-1.31-.02-2.65-.06-3.97-.02-.71-.08-1.43-.16-2.15-.18.43-.38.89-.61,1.39-.53,1.24-1.15,2.45-1.84,3.61-.7,1.19-1.49,2.21-2.36,3.05-.93.91-2.01,1.36-3.2,1.36s-2.14-.41-3-1.21c-.79-.75-1.51-1.65-2.16-2.68-.63-1.03-1.17-2.12-1.61-3.24-.14-.36-.28-.7-.4-1.02-.12,1.05-.23,2.18-.34,3.36-.18,1.98-.57,3.85-1.16,5.58-.6,1.77-1.54,3.26-2.77,4.44-1.27,1.21-3.1,1.83-5.43,1.83-1.96,0-3.8-.94-5.46-2.78-1.6-1.79-3.02-4.04-4.23-6.71-1.2-2.65-2.15-5.59-2.81-8.75C.32,34.33,0,31.33,0,28.58c0-.82.03-1.85.08-3.11.05-1.24.15-2.61.3-4.09.15-1.48.35-3.02.6-4.55.24-1.56.55-3.1.92-4.57.36-1.48.83-2.87,1.36-4.13.55-1.29,1.22-2.36,1.98-3.17.91-1.01,1.97-1.72,3.13-2.1,1.14-.38,2.41-.56,3.71-.56.91,0,1.83.09,2.75.26.93.17,1.84.38,2.7.62,1.58.46,3.04,1.47,4.34,3.03,1.26,1.5,2.41,3.22,3.41,5.11,1.01,1.89,1.88,3.82,2.6,5.77.71,1.94,1.3,3.58,1.78,4.93.04.15.12.35.21.6.09.25.19.5.3.75.1.22.21.41.35.57.11-.12.24-.37.43-.83.34-.83.69-1.8,1.04-2.88.35-1.1.69-2.16.97-3.18.3-1.06.52-1.74.67-2.11.57-1.74,1.32-3.54,2.19-5.3.88-1.78,1.95-3.4,3.17-4.81,1.25-1.43,2.71-2.6,4.36-3.49C45.07.45,47.02,0,49.2,0c1.91,0,3.5.41,4.73,1.23,1.21.81,2.2,1.85,2.95,3.11.74,1.24,1.28,2.64,1.59,4.17.31,1.5.54,3.02.68,4.51.22,2.58.4,5.21.51,7.82ZM57.81,39.23c.65-3.33.99-6.89,1-10.58,0-2.54-.04-5.15-.15-7.77-.11-2.59-.29-5.22-.51-7.78-.14-1.45-.36-2.93-.66-4.39-.29-1.43-.79-2.73-1.47-3.87-.68-1.13-1.57-2.06-2.64-2.79-1.07-.7-2.47-1.06-4.18-1.06-2.01,0-3.81.41-5.33,1.23-1.55.83-2.92,1.93-4.07,3.26-1.17,1.36-2.19,2.9-3.05,4.61-.85,1.71-1.58,3.47-2.15,5.21-.11.26-.29.78-.65,2.03-.29,1.02-.62,2.11-.99,3.21-.36,1.1-.72,2.09-1.06,2.94-.47,1.16-.8,1.57-1.26,1.57-.29,0-.57-.15-.83-.46-.2-.22-.38-.49-.51-.81-.12-.27-.24-.55-.34-.83-.1-.27-.17-.48-.21-.63-.47-1.32-1.07-2.96-1.78-4.89-.69-1.91-1.55-3.81-2.53-5.65-.98-1.83-2.09-3.49-3.31-4.95-1.17-1.4-2.46-2.32-3.85-2.71-.84-.23-1.72-.44-2.61-.6-.86-.16-1.73-.24-2.58-.24-1.19,0-2.35.16-3.39.51-.99.33-1.9.95-2.7,1.83-.69.74-1.29,1.7-1.79,2.88-.53,1.21-.96,2.55-1.33,3.99-.36,1.44-.66,2.94-.91,4.48-.24,1.52-.43,3.03-.58,4.5-.15,1.45-.25,2.81-.3,4.02-.05,1.24-.08,2.26-.08,3.07,0,2.69.31,5.61.97,8.7.64,3.09,1.57,5.96,2.74,8.55,1.16,2.58,2.53,4.74,4.07,6.45,1.47,1.63,3.06,2.46,4.72,2.46,2.07,0,3.65-.52,4.73-1.55,1.12-1.06,1.96-2.42,2.51-4.04.56-1.64.94-3.44,1.11-5.34.18-1.93.36-3.71.56-5.29l.23-1.82.72,1.68c.34.77.72,1.71,1.15,2.82.42,1.07.93,2.11,1.53,3.08.59.96,1.26,1.8,1.99,2.49.68.63,1.43.94,2.32.94.93,0,1.74-.36,2.5-1.09.8-.77,1.54-1.73,2.19-2.84.66-1.12,1.27-2.3,1.78-3.5.53-1.22.97-2.22,1.31-2.98l.65-1.49.29,1.6c.24,1.31.39,2.66.43,3.99.04,1.34.06,2.68.06,4,0,.91-.03,1.78-.08,2.59-.05.72.07,1.52.32,2.37.54,1.71,1.49,3.1,2.83,4.13,1.34,1.03,2.93,1.55,4.72,1.55,1.44,0,2.84-.71,4.18-2.11,1.4-1.45,2.65-3.45,3.7-5.92,1.07-2.5,1.94-5.45,2.59-8.77" fill="#737373" stroke-width="0"/>
    </g>
  </g>
</svg>