<?xml version="1.0" encoding="UTF-8"?>
<svg id="_Слой_2" data-name="Слой 2" xmlns="http://www.w3.org/2000/svg" viewBox="0 0 250.32 60.58">
  <g id="_Слой_1-2" data-name="Слой 1">
    <g>
      <g isolation="isolate">
        <path d="M27.04,15.29c.98,1.84,1.84,3.73,2.53,5.65-.87-1.16-1.74-2.33-2.61-3.49-.69-1.91-1.55-3.81-2.53-5.65-.74-1.38-1.55-2.67-2.43-3.84l2.61,3.49c.88,1.17,1.69,2.46,2.43,3.84Z" fill="#a684ff" stroke-width="0"/>
        <path d="M29.57,20.93h0c-.87-1.16-1.74-2.32-2.61-3.49,0,0,0,0,0,0h0c.87,1.16,1.74,2.33,2.61,3.49,0,0,0,0,0,0Z" fill="#a684ff" stroke-width="0"/>
        <path d="M29.57,20.93c.71,1.93,1.31,3.57,1.78,4.89l-2.61-3.49s0,0,0,0c.87,1.16,1.74,2.32,2.6,3.48-.87-1.16-1.74-2.32-2.6-3.48-.47-1.32-1.07-2.96-1.78-4.89.43.58.87,1.16,1.3,1.74.23.3.45.6.68.9.16.21.32.43.48.64.04.06.11.13.15.2Z" fill="#a684ff" stroke-width="0"/>
        <path d="M22.8,7.37l2.61,3.49c.9,1.21,1.74,2.54,2.5,3.95,1.01,1.89,1.88,3.82,2.6,5.77.71,1.94,1.3,3.58,1.78,4.93l-2.61-3.49c-.48-1.35-1.07-2.99-1.78-4.93-.72-1.95-1.59-3.89-2.6-5.77-.76-1.42-1.59-2.75-2.5-3.95Z" fill="#737373" stroke-width="0"/>
        <path d="M29.68,22.02l2.61,3.49c.04.15.12.35.21.6l-2.61-3.49c-.1-.25-.17-.45-.21-.6Z" fill="#737373" stroke-width="0"/>
        <path d="M55.51,4.08l2.61,3.49c-.59-.79-1.3-1.47-2.12-2.02-1.07-.7-2.47-1.06-4.18-1.06-2.01,0-3.81.41-5.33,1.23-1.55.83-2.92,1.93-4.07,3.26-1.17,1.36-2.19,2.9-3.05,4.61-.85,1.71-1.58,3.47-2.15,5.21l-2.61-3.49c.57-1.73,1.3-3.49,2.15-5.21.85-1.71,1.87-3.25,3.05-4.61,1.16-1.33,2.53-2.43,4.07-3.26,1.52-.82,3.32-1.23,5.33-1.23,1.72,0,3.12.36,4.18,1.06.82.55,1.53,1.23,2.12,2.02Z" fill="#737373" stroke-width="0"/>
        <path d="M31.56,26.45c.1.28.21.56.34.83-.77-1.03-1.54-2.05-2.31-3.08l-.3-.41c-.12-.27-.24-.55-.34-.83-.1-.27-.17-.48-.21-.63l2.61,3.49c.04.15.12.36.21.63Z" fill="#a684ff" stroke-width="0"/>
        <path d="M29.9,22.62l2.61,3.49c.09.25.19.5.3.75l-2.61-3.49c-.12-.25-.21-.5-.3-.75Z" fill="#737373" stroke-width="0"/>
        <path d="M32.01,27.51c-.87-1.16-1.74-2.33-2.61-3.49-.04-.07-.08-.15-.11-.23l2.61,3.49c.03.08.07.16.11.23Z" fill="#a684ff" stroke-width="0"/>
        <path d="M32.01,27.51c.07.14.16.27.25.39l-2.61-3.49c-.09-.12-.17-.25-.25-.39.87,1.16,1.74,2.33,2.61,3.49Z" fill="#a684ff" stroke-width="0"/>
        <path d="M33.07,27.33l-2.61-3.49c-.1-.13-.19-.28-.26-.46l2.61,3.49c.08.17.16.33.26.46Z" fill="#737373" stroke-width="0"/>
        <path d="M32.26,27.9l-2.61-3.49c.05.06.1.13.15.19.26.31.55.46.83.46.47,0,.79-.41,1.26-1.57.34-.85.7-1.84,1.06-2.94.37-1.1.7-2.19.99-3.21.36-1.25.54-1.77.65-2.03l2.61,3.49c-.11.26-.29.78-.65,2.03-.29,1.02-.62,2.11-.99,3.21-.36,1.1-.72,2.09-1.06,2.94-.47,1.16-.8,1.57-1.26,1.57-.29,0-.57-.15-.83-.46-.05-.06-.1-.12-.15-.19Z" fill="#737373" stroke-width="0"/>
        <polygon points="22.63 36.68 25.24 40.17 25.01 41.99 22.4 38.51 22.63 36.68" fill="#a684ff" stroke-width="0"/>
        <polygon points="22.63 36.68 25.24 40.17 25.96 41.85 23.35 38.36 22.63 36.68" fill="#737373" stroke-width="0"/>
        <path d="M21.99,7.96l2.61,3.49c-.28-.38-.58-.75-.87-1.11-1.17-1.4-2.46-2.32-3.85-2.71-.84-.23-1.72-.44-2.61-.6-.86-.16-1.73-.24-2.58-.24-1.19,0-2.35.16-3.39.51-.99.33-1.9.95-2.7,1.83-.69.74-1.29,1.7-1.79,2.88-.53,1.21-.96,2.55-1.33,3.99-.36,1.44-.66,2.94-.91,4.48-.24,1.52-.43,3.03-.58,4.5-.15,1.45-.25,2.81-.3,4.02-.05,1.24-.08,2.26-.08,3.07,0,2.69.31,5.61.97,8.7.64,3.09,1.57,5.96,2.74,8.55.86,1.92,1.84,3.61,2.92,5.05l-2.61-3.49c-1.08-1.44-2.06-3.13-2.92-5.05-1.17-2.59-2.09-5.46-2.74-8.55-.65-3.09-.98-6.01-.97-8.7,0-.81.03-1.83.08-3.07.05-1.21.15-2.57.3-4.02.15-1.46.34-2.98.58-4.5.25-1.54.55-3.04.91-4.48.36-1.44.8-2.77,1.33-3.99.5-1.19,1.1-2.15,1.79-2.88.8-.88,1.71-1.5,2.7-1.83,1.04-.35,2.2-.51,3.39-.51.85,0,1.72.08,2.58.24.9.16,1.78.37,2.61.6,1.38.4,2.67,1.31,3.85,2.71.3.36.59.73.87,1.11Z" fill="#737373" stroke-width="0"/>
        <path d="M24.45,47.28h0c-.87-1.16-1.74-2.32-2.61-3.49,0,0,0,0,0,0,.18-1.93.36-3.71.56-5.29l2.61,3.49c-.19,1.58-.38,3.36-.56,5.29Z" fill="#a684ff" stroke-width="0"/>
        <path d="M29.34,48.77l-2.61-3.49c-.24-.32-.47-.66-.69-1.02-.61-.97-1.12-2.01-1.53-3.08-.43-1.1-.81-2.05-1.15-2.82l2.61,3.49c.34.77.72,1.71,1.15,2.82.42,1.07.93,2.11,1.53,3.08.22.36.45.7.69,1.02Z" fill="#737373" stroke-width="0"/>
        <path d="M60.43,42.71h0c-.87-1.16-1.74-2.32-2.61-3.49,0,0,0,0,0,0,.65-3.33.99-6.89,1-10.58,0-2.54-.04-5.15-.15-7.77-.11-2.59-.29-5.22-.51-7.78-.14-1.45-.36-2.93-.66-4.39-.29-1.43-.79-2.73-1.47-3.87-.16-.27-.33-.53-.52-.77l2.61,3.49c.18.25.36.5.52.77.68,1.14,1.18,2.44,1.47,3.87.3,1.46.52,2.94.66,4.39.22,2.56.4,5.18.51,7.78.11,2.61.16,5.23.15,7.77-.01,3.69-.35,7.25-1,10.58Z" fill="#a684ff" stroke-width="0"/>
        <path d="M56.3,3.47l2.61,3.49c.21.28.4.57.58.87.74,1.24,1.28,2.64,1.59,4.17.31,1.5.54,3.02.68,4.51.22,2.58.4,5.21.51,7.82l-2.61-3.49c-.11-2.61-.29-5.24-.51-7.82-.14-1.49-.37-3.01-.68-4.51-.32-1.54-.85-2.94-1.59-4.17-.18-.3-.37-.59-.58-.87Z" fill="#737373" stroke-width="0"/>
        <polygon points="38.77 35.8 41.38 39.28 40.73 40.77 38.12 37.29 38.77 35.8" fill="#a684ff" stroke-width="0"/>
        <polygon points="38.77 35.8 41.38 39.28 41.67 40.88 39.06 37.39 38.77 35.8" fill="#737373" stroke-width="0"/>
        <path d="M11.38,55.76c-.39-.44-.77-.9-1.14-1.39l-2.61-3.49c.37.49.75.96,1.14,1.39,1.47,1.63,3.06,2.46,4.72,2.46,0,0,2.31,3.08,2.31,3.08.1.14.2.27.3.41-.87-1.16-1.74-2.33-2.61-3.49,2.07,0,3.65-.52,4.73-1.55.87,1.16,1.74,2.33,2.61,3.49-.87-1.16-1.74-2.33-2.61-3.49,1.12-1.06,1.96-2.42,2.51-4.04h0s0,0,0,0c0,0,0,0,0,0,.38.5.76,1.01,1.13,1.51.42.56.83,1.11,1.25,1.67.08.1.15.2.23.3-.87-1.16-1.74-2.33-2.61-3.49.56-1.64.94-3.44,1.11-5.34.87,1.16,1.74,2.33,2.61,3.49-.17,1.9-.54,3.7-1.11,5.34-.55,1.62-1.39,2.98-2.51,4.04-1.08,1.03-2.67,1.55-4.73,1.55-1.66,0-3.25-.83-4.72-2.46Z" fill="#a684ff" stroke-width="0"/>
        <path d="M30.63,50.24c-.45-.43-.89-.92-1.29-1.46l-2.61-3.49c.4.54.84,1.03,1.29,1.46.87,1.16,1.74,2.33,2.61,3.49Z" fill="#a684ff" stroke-width="0"/>
        <path d="M9.46,55.01l-2.61-3.49c.38.5.77.98,1.17,1.43,1.66,1.84,3.5,2.78,5.46,2.78,2.33,0,4.15-.62,5.43-1.83,1.23-1.18,2.17-2.67,2.77-4.44.59-1.72.98-3.6,1.16-5.58.1-1.18.22-2.31.34-3.36l2.61,3.49c-.12,1.05-.23,2.18-.34,3.36-.18,1.98-.57,3.85-1.16,5.58-.6,1.77-1.54,3.26-2.77,4.44-1.27,1.21-3.1,1.83-5.43,1.83-1.96,0-3.8-.94-5.46-2.78-.4-.45-.79-.92-1.17-1.43Z" fill="#737373" stroke-width="0"/>
        <path d="M39.42,43.75c-.51,1.18-1.1,2.34-1.75,3.45-.87-1.16-1.74-2.33-2.61-3.49.65-1.11,1.24-2.26,1.75-3.45.53-1.22.97-2.22,1.31-2.98l2.61,3.49c-.34.76-.78,1.76-1.31,2.98Z" fill="#a684ff" stroke-width="0"/>
        <path d="M37.63,47.26c-.31.53-.64,1.02-.98,1.48-.87-1.16-1.74-2.33-2.61-3.49.35-.46.68-.95.98-1.48.01-.02.02-.04.03-.05.87,1.16,1.74,2.33,2.61,3.49-.01.02-.02.04-.03.05Z" fill="#a684ff" stroke-width="0"/>
        <path d="M32.95,51.18c-.88,0-1.63-.31-2.32-.94-.87-1.16-1.74-2.33-2.61-3.49.68.63,1.43.94,2.32.94.93,0,1.74-.36,2.5-1.09.42-.4.82-.86,1.2-1.36.87,1.16,1.74,2.33,2.61,3.49-.38.5-.78.95-1.2,1.36-.76.73-1.57,1.09-2.5,1.09Z" fill="#a684ff" stroke-width="0"/>
        <path d="M28.53,49.36l-2.61-3.49c.44.59.92,1.13,1.42,1.6.86.8,1.87,1.21,3,1.21s2.27-.46,3.2-1.36c.87-.84,1.66-1.87,2.36-3.05.69-1.16,1.3-2.37,1.84-3.61.23-.5.43-.96.61-1.39l2.61,3.49c-.18.43-.38.89-.61,1.39-.53,1.24-1.15,2.45-1.84,3.61-.7,1.19-1.49,2.21-2.36,3.05-.93.91-2.01,1.36-3.2,1.36s-2.14-.41-3-1.21c-.5-.47-.97-1.01-1.42-1.6Z" fill="#737373" stroke-width="0"/>
        <path d="M43.71,56.42l-2.61-3.49c-.57-.76-1-1.62-1.31-2.59-.26-.85-.37-1.65-.32-2.37.05-.81.08-1.68.08-2.59,0-1.32-.02-2.67-.06-4-.04-1.33-.19-2.68-.43-3.99l2.61,3.49c.24,1.31.39,2.66.43,3.99.04,1.34.06,2.68.06,4,0,.91-.03,1.78-.08,2.59-.05.72.07,1.52.32,2.37.31.97.75,1.83,1.31,2.59Z" fill="#737373" stroke-width="0"/>
        <path d="M60.43,42.71c-.45,2.31-1.01,4.44-1.67,6.37-.87-1.16-1.74-2.33-2.61-3.49.66-1.92,1.22-4.06,1.67-6.37.87,1.16,1.74,2.33,2.61,3.49Z" fill="#a684ff" stroke-width="0"/>
        <path d="M45.23,57.96c-.58-.45-1.09-.96-1.52-1.54l-2.61-3.49c.43.58.94,1.09,1.52,1.54,1.34,1.03,2.93,1.55,4.72,1.55.21.28.42.56.63.84.34.45.68.91,1.02,1.36.32.43.64.86.96,1.29-.87-1.16-1.74-2.33-2.61-3.49,1.44,0,2.84-.71,4.18-2.11.87,1.16,1.74,2.32,2.61,3.49-.87-1.16-1.74-2.33-2.61-3.49,1.4-1.45,2.65-3.45,3.7-5.92h0s0,0,0,0c0,0,0,0,0,0,0,0,0,0,0,0,.08.11.19.25.27.35.29.39.58.77.87,1.16.49.66.98,1.31,1.48,1.97-.87-1.16-1.74-2.33-2.61-3.49.33-.76.63-1.56.92-2.41.87,1.16,1.74,2.33,2.61,3.49-.29.84-.6,1.65-.92,2.41-1.05,2.47-2.3,4.46-3.7,5.92-1.34,1.4-2.74,2.11-4.18,2.11-1.79,0-3.38-.52-4.72-1.55Z" fill="#a684ff" stroke-width="0"/>
        <path d="M49.2,1c1.72,0,3.12.36,4.18,1.06,1.08.73,1.96,1.66,2.64,2.79.68,1.14,1.18,2.44,1.47,3.87.3,1.46.52,2.94.66,4.39.22,2.56.4,5.18.51,7.78.11,2.61.16,5.23.15,7.77-.01,3.69-.35,7.25-1,10.58-.65,3.32-1.52,6.28-2.59,8.77-1.05,2.47-2.3,4.46-3.7,5.92-1.34,1.4-2.74,2.11-4.18,2.11-1.79,0-3.38-.52-4.72-1.55s-2.29-2.42-2.83-4.13c-.26-.85-.37-1.65-.32-2.37.05-.81.08-1.68.08-2.59,0-1.32-.02-2.67-.06-4-.04-1.33-.19-2.68-.43-3.99l-.29-1.6-.65,1.49c-.34.76-.78,1.76-1.31,2.98-.52,1.2-1.12,2.38-1.78,3.5-.64,1.1-1.38,2.06-2.19,2.84-.76.73-1.57,1.09-2.5,1.09-.88,0-1.63-.31-2.32-.94-.73-.69-1.4-1.53-1.99-2.49-.61-.97-1.12-2.01-1.53-3.08-.43-1.1-.81-2.05-1.15-2.82l-.72-1.68-.23,1.82c-.19,1.58-.38,3.36-.56,5.29-.17,1.9-.54,3.7-1.11,5.34-.55,1.62-1.39,2.98-2.51,4.04-1.08,1.03-2.67,1.55-4.73,1.55-1.66,0-3.25-.83-4.72-2.46-1.54-1.71-2.91-3.87-4.07-6.45-1.17-2.59-2.09-5.46-2.74-8.55-.65-3.09-.98-6.01-.97-8.7,0-.81.03-1.83.08-3.07.05-1.21.15-2.57.3-4.02.15-1.46.34-2.98.58-4.5.25-1.54.55-3.04.91-4.48.36-1.44.8-2.77,1.33-3.99.5-1.19,1.1-2.15,1.79-2.88.8-.88,1.71-1.5,2.7-1.83,1.04-.35,2.2-.51,3.39-.51.85,0,1.72.08,2.58.24.9.16,1.78.37,2.61.6,1.38.4,2.67,1.31,3.85,2.71,1.22,1.45,2.33,3.12,3.31,4.95.98,1.84,1.84,3.73,2.53,5.65.71,1.93,1.31,3.57,1.78,4.89.04.15.12.36.21.63.1.28.21.56.34.83.13.31.31.58.51.81.26.31.55.46.83.46.47,0,.79-.41,1.26-1.57.34-.85.7-1.84,1.06-2.94.37-1.1.7-2.19.99-3.21.36-1.25.54-1.77.65-2.03.57-1.73,1.3-3.49,2.15-5.21.85-1.71,1.87-3.25,3.05-4.61,1.16-1.33,2.53-2.43,4.07-3.26,1.52-.82,3.32-1.23,5.33-1.23Z" fill="#a684ff" stroke-width="0"/>
        <path d="M42.91,57.01l-2.61-3.49c.49.65,1.06,1.23,1.72,1.74,1.51,1.17,3.31,1.76,5.32,1.76,1.72,0,3.36-.82,4.91-2.42,1.48-1.55,2.79-3.65,3.9-6.22,1.1-2.56,1.99-5.58,2.65-8.97.66-3.39,1.01-7.01,1.02-10.76,0-2.56-.04-5.19-.15-7.81l2.61,3.49c.11,2.62.16,5.25.15,7.81-.01,3.75-.36,7.37-1.02,10.76-.66,3.39-1.55,6.41-2.65,8.97-1.11,2.58-2.42,4.67-3.9,6.22-1.54,1.6-3.19,2.42-4.91,2.42-2.01,0-3.81-.59-5.32-1.76-.66-.51-1.24-1.09-1.72-1.74Z" fill="#737373" stroke-width="0"/>
        <path d="M59.66,20.84c.11,2.62.16,5.25.15,7.81-.01,3.75-.36,7.37-1.02,10.76-.66,3.39-1.55,6.41-2.65,8.97-1.11,2.58-2.42,4.67-3.9,6.22-1.54,1.6-3.19,2.42-4.91,2.42-2.01,0-3.81-.59-5.32-1.76-1.51-1.16-2.58-2.71-3.18-4.62-.29-.96-.42-1.89-.37-2.73.05-.78.08-1.63.08-2.52,0-1.31-.02-2.65-.06-3.97-.02-.71-.08-1.43-.16-2.15-.18.43-.38.89-.61,1.39-.53,1.24-1.15,2.45-1.84,3.61-.7,1.19-1.49,2.21-2.36,3.05-.93.91-2.01,1.36-3.2,1.36s-2.14-.41-3-1.21c-.79-.75-1.51-1.65-2.16-2.68-.63-1.03-1.17-2.12-1.61-3.24-.14-.36-.28-.7-.4-1.02-.12,1.05-.23,2.18-.34,3.36-.18,1.98-.57,3.85-1.16,5.58-.6,1.77-1.54,3.26-2.77,4.44-1.27,1.21-3.1,1.83-5.43,1.83-1.96,0-3.8-.94-5.46-2.78-1.6-1.79-3.02-4.04-4.23-6.71-1.2-2.65-2.15-5.59-2.81-8.75C.32,34.33,0,31.33,0,28.58c0-.82.03-1.85.08-3.11.05-1.24.15-2.61.3-4.09.15-1.48.35-3.02.6-4.55.24-1.56.55-3.1.92-4.57.36-1.48.83-2.87,1.36-4.13.55-1.29,1.22-2.36,1.98-3.17.91-1.01,1.97-1.72,3.13-2.1,1.14-.38,2.41-.56,3.71-.56.91,0,1.83.09,2.75.26.93.17,1.84.38,2.7.62,1.58.46,3.04,1.47,4.34,3.03,1.26,1.5,2.41,3.22,3.41,5.11,1.01,1.89,1.88,3.82,2.6,5.77.71,1.94,1.3,3.58,1.78,4.93.04.15.12.35.21.6.09.25.19.5.3.75.1.22.21.41.35.57.11-.12.24-.37.43-.83.34-.83.69-1.8,1.04-2.88.35-1.1.69-2.16.97-3.18.3-1.06.52-1.74.67-2.11.57-1.74,1.32-3.54,2.19-5.3.88-1.78,1.95-3.4,3.17-4.81,1.25-1.43,2.71-2.6,4.36-3.49C45.07.45,47.02,0,49.2,0c1.91,0,3.5.41,4.73,1.23,1.21.81,2.2,1.85,2.95,3.11.74,1.24,1.28,2.64,1.59,4.17.31,1.5.54,3.02.68,4.51.22,2.58.4,5.21.51,7.82ZM57.81,39.23c.65-3.33.99-6.89,1-10.58,0-2.54-.04-5.15-.15-7.77-.11-2.59-.29-5.22-.51-7.78-.14-1.45-.36-2.93-.66-4.39-.29-1.43-.79-2.73-1.47-3.87-.68-1.13-1.57-2.06-2.64-2.79-1.07-.7-2.47-1.06-4.18-1.06-2.01,0-3.81.41-5.33,1.23-1.55.83-2.92,1.93-4.07,3.26-1.17,1.36-2.19,2.9-3.05,4.61-.85,1.71-1.58,3.47-2.15,5.21-.11.26-.29.78-.65,2.03-.29,1.02-.62,2.11-.99,3.21-.36,1.1-.72,2.09-1.06,2.94-.47,1.16-.8,1.57-1.26,1.57-.29,0-.57-.15-.83-.46-.2-.22-.38-.49-.51-.81-.12-.27-.24-.55-.34-.83-.1-.27-.17-.48-.21-.63-.47-1.32-1.07-2.96-1.78-4.89-.69-1.91-1.55-3.81-2.53-5.65-.98-1.83-2.09-3.49-3.31-4.95-1.17-1.4-2.46-2.32-3.85-2.71-.84-.23-1.72-.44-2.61-.6-.86-.16-1.73-.24-2.58-.24-1.19,0-2.35.16-3.39.51-.99.33-1.9.95-2.7,1.83-.69.74-1.29,1.7-1.79,2.88-.53,1.21-.96,2.55-1.33,3.99-.36,1.44-.66,2.94-.91,4.48-.24,1.52-.43,3.03-.58,4.5-.15,1.45-.25,2.81-.3,4.02-.05,1.24-.08,2.26-.08,3.07,0,2.69.31,5.61.97,8.7.64,3.09,1.57,5.96,2.74,8.55,1.16,2.58,2.53,4.74,4.07,6.45,1.47,1.63,3.06,2.46,4.72,2.46,2.07,0,3.65-.52,4.73-1.55,1.12-1.06,1.96-2.42,2.51-4.04.56-1.64.94-3.44,1.11-5.34.18-1.93.36-3.71.56-5.29l.23-1.82.72,1.68c.34.77.72,1.71,1.15,2.82.42,1.07.93,2.11,1.53,3.08.59.96,1.26,1.8,1.99,2.49.68.63,1.43.94,2.32.94.93,0,1.74-.36,2.5-1.09.8-.77,1.54-1.73,2.19-2.84.66-1.12,1.27-2.3,1.78-3.5.53-1.22.97-2.22,1.31-2.98l.65-1.49.29,1.6c.24,1.31.39,2.66.43,3.99.04,1.34.06,2.68.06,4,0,.91-.03,1.78-.08,2.59-.05.72.07,1.52.32,2.37.54,1.71,1.49,3.1,2.83,4.13,1.34,1.03,2.93,1.55,4.72,1.55,1.44,0,2.84-.71,4.18-2.11,1.4-1.45,2.65-3.45,3.7-5.92,1.07-2.5,1.94-5.45,2.59-8.77" fill="#737373" stroke-width="0"/>
      </g>
      <g isolation="isolate">
        <path d="M93.2,30.28c-1.94,0-3.61.65-4.95,1.93-.87-1.16-1.74-2.33-2.61-3.49,1.34-1.28,3.01-1.93,4.95-1.93.87,1.16,1.74,2.33,2.61,3.49Z" fill="#f2ff4a" stroke-width="0"/>
        <path d="M88.25,32.21c-1.35,1.29-2.03,3.03-2.04,5.17-.87-1.16-1.74-2.33-2.61-3.49,0-2.14.69-3.88,2.04-5.17.87,1.16,1.74,2.33,2.61,3.49Z" fill="#f2ff4a" stroke-width="0"/>
        <path d="M95.62,30.78c-.83-.33-1.63-.5-2.42-.5-.87-1.16-1.74-2.33-2.61-3.49.78,0,1.59.17,2.42.5.87,1.16,1.74,2.33,2.61,3.49Z" fill="#f2ff4a" stroke-width="0"/>
        <path d="M111.44,13.45l2.61,3.49c-.66-.88-1.38-1.7-2.16-2.47-2.23-2.19-4.96-3.9-8.14-5.06-3.19-1.17-6.78-1.76-10.68-1.76s-7.39.7-10.55,2.07c-3.17,1.38-5.91,3.29-8.16,5.7-2.26,2.42-4.04,5.29-5.29,8.57-1.25,3.28-1.89,6.84-1.91,10.59s.66,7.11,2,10.15c.75,1.68,1.65,3.24,2.71,4.65l-2.61-3.49c-1.06-1.42-1.97-2.97-2.71-4.65-1.35-3.03-2.02-6.45-2-10.15s.66-7.32,1.91-10.59c1.25-3.28,3.03-6.15,5.29-8.57,2.26-2.41,4.99-4.32,8.16-5.7,3.16-1.37,6.71-2.07,10.55-2.07s7.49.59,10.68,1.76c3.18,1.17,5.91,2.87,8.14,5.06.78.76,1.5,1.58,2.16,2.47Z" fill="#737373" stroke-width="0"/>
        <path d="M97.83,32.07c-.65-.53-1.4-.96-2.21-1.29-.87-1.16-1.74-2.33-2.61-3.49.81.33,1.55.76,2.21,1.29.87,1.16,1.74,2.33,2.61,3.49Z" fill="#f2ff4a" stroke-width="0"/>
        <path d="M98.96,33.25c-.32-.43-.7-.83-1.13-1.17-.87-1.16-1.74-2.33-2.61-3.49.43.34.81.74,1.13,1.17.78,1.05,1.83,2.44,2.61,3.49Z" fill="#f2ff4a" stroke-width="0"/>
        <path d="M86.21,37.38c0,1.88.46,3.46,1.39,4.7l-2.61-3.49c-.93-1.24-1.4-2.82-1.39-4.7.44.58.87,1.16,1.31,1.74.39.51.77,1.03,1.16,1.54.04.06.13.13.15.2Z" fill="#f2ff4a" stroke-width="0"/>
        <path d="M95.55,30.36l2.61,3.49c-.28-.37-.6-.7-.97-1-.57-.47-1.24-.85-1.96-1.14-.7-.29-1.38-.43-2.04-.43-1.7,0-3.09.54-4.26,1.65s-1.73,2.57-1.73,4.45c0,1.66.4,3.03,1.2,4.11l-2.61-3.49c-.8-1.07-1.2-2.45-1.2-4.11,0-1.89.57-3.34,1.73-4.45s2.56-1.65,4.26-1.65c.66,0,1.34.14,2.04.43.72.29,1.38.67,1.96,1.14.37.3.69.63.97,1Z" fill="#737373" stroke-width="0"/>
        <path d="M74.73,52.53c-1.05-.96-2-2.01-2.86-3.15l-2.61-3.49c.85,1.14,1.81,2.19,2.86,3.15.87,1.16,1.74,2.33,2.61,3.49Z" fill="#f2ff4a" stroke-width="0"/>
        <path d="M114.05,16.93c1.24,1.65,2.26,3.51,3.06,5.55l-2.61-3.49c-.8-2.04-1.83-3.9-3.06-5.55.78,1.05,1.83,2.44,2.61,3.49Z" fill="#f2ff4a" stroke-width="0"/>
        <path d="M112.23,12.84l2.61,3.49c1.29,1.73,2.36,3.66,3.2,5.79l-2.61-3.49c-.84-2.13-1.91-4.07-3.2-5.79Z" fill="#737373" stroke-width="0"/>
        <path d="M96.35,29.76l2.61,3.49c.18.24.35.5.5.77.42.77.63,1.62.63,2.5s-.21,1.89-.63,2.86c-.41.96-.96,1.82-1.64,2.58-.69.76-1.49,1.39-2.37,1.87-.91.49-1.87.75-2.87.75-1.82,0-3.35-.67-4.57-1.99-.14-.16-.28-.32-.4-.49l-2.61-3.49c.13.17.26.33.4.49,1.22,1.32,2.75,1.99,4.57,1.99,1,0,1.96-.25,2.87-.75.88-.48,1.68-1.1,2.37-1.87.68-.75,1.23-1.62,1.64-2.58.42-.97.63-1.93.63-2.86s-.21-1.73-.63-2.5c-.15-.27-.31-.52-.5-.77Z" fill="#737373" stroke-width="0"/>
        <path d="M95.22,28.59c.67.54,1.22,1.19,1.63,1.94.42.77.63,1.62.63,2.5s-.21,1.89-.63,2.86c-.41.96-.96,1.82-1.64,2.58-.69.76-1.49,1.39-2.37,1.87-.91.49-1.87.75-2.87.75-1.82,0-3.35-.67-4.57-1.99-1.2-1.31-1.8-3.05-1.8-5.19s.69-3.88,2.04-5.17c1.34-1.28,3.01-1.93,4.95-1.93.78,0,1.59.17,2.42.5.81.33,1.55.76,2.21,1.29ZM95.93,35.5c.36-.84.55-1.68.55-2.47,0-.72-.17-1.4-.5-2.02-.36-.64-.81-1.19-1.39-1.65s-1.24-.85-1.96-1.14c-.7-.29-1.38-.43-2.04-.43-1.7,0-3.09.54-4.26,1.65s-1.73,2.57-1.73,4.45.51,3.39,1.54,4.52,2.29,1.67,3.83,1.67c.83,0,1.63-.22,2.39-.63.78-.42,1.5-.98,2.1-1.65.6-.67,1.1-1.45,1.46-2.3" fill="#737373" stroke-width="0"/>
        <path d="M83.04,57.53c-3.16-1.17-5.96-2.85-8.3-5-.87-1.16-1.74-2.33-2.61-3.49,2.35,2.15,5.14,3.83,8.3,5,.87,1.16,1.74,2.33,2.61,3.49Z" fill="#f2ff4a" stroke-width="0"/>
        <path d="M117.11,22.49c1.23,3.13,1.84,6.72,1.83,10.66-.87-1.16-1.74-2.33-2.61-3.49.01-3.93-.6-7.52-1.83-10.66.78,1.05,1.97,2.35,2.61,3.49Z" fill="#f2ff4a" stroke-width="0"/>
        <path d="M93.24,59.3c-3.61,0-7.04-.59-10.2-1.77-.87-1.16-1.74-2.33-2.61-3.49,3.16,1.18,6.59,1.77,10.2,1.77.87,1.16,1.74,2.33,2.61,3.49Z" fill="#f2ff4a" stroke-width="0"/>
        <path d="M118.94,33.14c-.01,3.47-.71,6.81-2.05,9.97-.87-1.16-1.74-2.33-2.61-3.49,1.34-3.16,2.04-6.51,2.05-9.97.44.58.87,1.16,1.31,1.74.05.07.12.16.17.23.33.44.66.88.98,1.32.04.06.13.13.15.2Z" fill="#f2ff4a" stroke-width="0"/>
        <path d="M103.18,57.19c-3.09,1.4-6.43,2.11-9.94,2.11-.87-1.16-1.74-2.33-2.61-3.49,3.51,0,6.85-.71,9.94-2.11.87,1.16,1.74,2.33,2.61,3.49Z" fill="#f2ff4a" stroke-width="0"/>
        <path d="M116.89,43.12c-1.34,3.16-3.21,5.97-5.54,8.36-.87-1.16-1.74-2.33-2.61-3.49,2.33-2.39,4.2-5.2,5.54-8.36.87,1.16,1.74,2.33,2.61,3.49Z" fill="#f2ff4a" stroke-width="0"/>
        <path d="M111.35,51.48c-2.32,2.38-5.08,4.3-8.17,5.71-.87-1.16-1.74-2.33-2.61-3.49,3.1-1.41,5.85-3.33,8.17-5.71.87,1.16,1.74,2.33,2.61,3.49Z" fill="#f2ff4a" stroke-width="0"/>
        <path d="M114.5,19c1.23,3.13,1.84,6.72,1.83,10.66-.01,3.47-.71,6.81-2.05,9.97-1.34,3.16-3.21,5.97-5.54,8.36-2.32,2.38-5.08,4.3-8.17,5.71-3.09,1.4-6.43,2.11-9.94,2.11s-7.04-.59-10.2-1.77c-3.16-1.17-5.96-2.85-8.3-5-2.36-2.15-4.22-4.77-5.57-7.8-1.35-3.03-2.02-6.45-2-10.15s.66-7.32,1.91-10.59c1.25-3.28,3.03-6.15,5.29-8.57,2.26-2.41,4.99-4.32,8.16-5.7,3.16-1.37,6.71-2.07,10.55-2.07s7.49.59,10.68,1.76c3.18,1.17,5.91,2.87,8.14,5.06,2.24,2.19,3.99,4.88,5.22,8.02ZM96.84,35.89c.42-.97.63-1.93.63-2.86s-.21-1.73-.63-2.5c-.41-.75-.96-1.4-1.63-1.94-.65-.53-1.4-.96-2.21-1.29-.83-.33-1.63-.5-2.42-.5-1.94,0-3.61.65-4.95,1.93-1.35,1.29-2.03,3.03-2.04,5.17s.6,3.88,1.8,5.19c1.22,1.32,2.75,1.99,4.57,1.99,1,0,1.96-.25,2.87-.75.88-.48,1.68-1.1,2.37-1.87.68-.75,1.23-1.62,1.64-2.58" fill="#f2ff4a" stroke-width="0"/>
        <path d="M71.08,49.99l-2.61-3.49c.89,1.19,1.88,2.28,2.97,3.28,2.45,2.24,5.35,3.99,8.63,5.2s6.82,1.83,10.55,1.83,7.14-.75,10.35-2.2c3.21-1.45,6.07-3.45,8.48-5.93,2.42-2.48,4.35-5.39,5.74-8.66,1.41-3.28,2.12-6.76,2.13-10.36.01-4.06-.63-7.78-1.9-11.03l2.61,3.49c1.27,3.25,1.92,6.97,1.9,11.03-.01,3.6-.73,7.08-2.13,10.36-1.39,3.28-3.32,6.19-5.74,8.66-2.41,2.48-5.27,4.47-8.48,5.93-3.21,1.45-6.7,2.2-10.35,2.2s-7.28-.62-10.55-1.83-6.18-2.96-8.63-5.2c-1.09-.99-2.08-2.09-2.97-3.28Z" fill="#737373" stroke-width="0"/>
        <path d="M115.43,18.63c1.27,3.25,1.92,6.97,1.9,11.03-.01,3.6-.73,7.08-2.13,10.36-1.39,3.28-3.32,6.19-5.74,8.66-2.41,2.48-5.27,4.47-8.48,5.93-3.21,1.45-6.7,2.2-10.35,2.2s-7.28-.62-10.55-1.83-6.18-2.96-8.63-5.2c-2.45-2.24-4.4-4.97-5.8-8.13-1.41-3.16-2.11-6.71-2.09-10.55s.67-7.56,1.97-10.94c1.3-3.39,3.15-6.39,5.5-8.9s5.2-4.5,8.49-5.93c3.29-1.43,6.97-2.15,10.95-2.15s7.73.61,11.02,1.82c3.31,1.22,6.17,3,8.5,5.29,2.34,2.29,4.16,5.1,5.44,8.36ZM114.28,39.63c1.34-3.16,2.04-6.51,2.05-9.97.01-3.93-.6-7.52-1.83-10.66-1.23-3.13-2.98-5.83-5.22-8.02-2.23-2.19-4.96-3.9-8.14-5.06-3.19-1.17-6.78-1.76-10.68-1.76s-7.39.7-10.55,2.07c-3.17,1.38-5.91,3.29-8.16,5.7-2.26,2.42-4.04,5.29-5.29,8.57-1.25,3.28-1.89,6.84-1.91,10.59s.66,7.11,2,10.15c1.35,3.03,3.21,5.66,5.57,7.8,2.35,2.15,5.14,3.83,8.3,5,3.16,1.18,6.59,1.77,10.2,1.77s6.85-.71,9.94-2.11c3.1-1.41,5.85-3.33,8.17-5.71,2.33-2.39,4.2-5.2,5.54-8.36" fill="#737373" stroke-width="0"/>
      </g>
      <g isolation="isolate">
        <path d="M148.19,13.41c-.24-.32-.48-.64-.72-.96-.15-.2-.3-.4-.45-.6-.2-.26-.39-.52-.59-.79-.14-.18-.28-.37-.42-.55-.04-.05-.1-.12-.13-.17,0,0,0,0,0,0,.77,1.03,1.54,2.05,2.31,3.08Z" fill="#a684ff" stroke-width="0"/>
        <path d="M148.49,13.82c0,.97-.11,1.92-.32,2.84-.87-1.16-1.74-2.33-2.61-3.49.21-.92.32-1.87.32-2.84h0s0,0,0,0c0,0,0,0,0,0,0,0,0,0,0,0,.38.5.76,1.01,1.13,1.51.49.66.98,1.31,1.48,1.97-.87-1.16-1.74-2.33-2.61-3.49,0-2.42-.61-4.48-1.84-6.12l2.61,3.49c1.23,1.64,1.85,3.7,1.84,6.12Z" fill="#a684ff" stroke-width="0"/>
        <path d="M148.17,16.66h0c-.87-1.16-1.74-2.32-2.61-3.49,0,0,0,0,0,0h0c.87,1.16,1.74,2.32,2.61,3.49,0,0,0,0,0,0Z" fill="#a684ff" stroke-width="0"/>
        <path d="M148.17,16.66c-.21.94-.46,1.88-.76,2.8-.49-.66-.98-1.32-1.48-1.97-.1-.14-.24-.32-.34-.45-.05-.07-.12-.16-.17-.22-.21-.28-.42-.56-.63-.84,0,0,0,0,0,0,.29-.92.55-1.86.76-2.8.87,1.16,1.74,2.33,2.61,3.49Z" fill="#a684ff" stroke-width="0"/>
        <path d="M144.74,37.3c-.87-1.16-1.74-2.33-2.61-3.49-.05-.84-.07-1.58-.06-2.22.01-3.28.37-6.6,1.05-9.87.19-.97.46-1.95.77-2.93,0,0,0,0,0,0,.87,1.16,1.74,2.32,2.61,3.48-.87-1.16-1.74-2.32-2.61-3.48h0c.32-.95.62-1.89.91-2.82.87,1.16,1.74,2.32,2.61,3.48-.87-1.16-1.74-2.32-2.61-3.48,0,0,0,0,0,0,0,0,0,0,0,0,.87,1.16,1.74,2.33,2.61,3.49h0s0,0,0,0c-.29.93-.59,1.88-.91,2.83-.32.98-.58,1.96-.77,2.93-.69,3.27-1.04,6.59-1.05,9.87,0,.64.01,1.37.06,2.22Z" fill="#a684ff" stroke-width="0"/>
        <path d="M144.74,37.3c.03.66.12,1.3.25,1.93-.87-1.16-1.74-2.33-2.61-3.49-.14-.63-.22-1.28-.25-1.93.87,1.16,1.74,2.33,2.61,3.49,0,0,0,0,0,0Z" fill="#a684ff" stroke-width="0"/>
        <path d="M144.04,4.22l2.61,3.49c-.13-.18-.27-.35-.42-.52-1.49-1.7-3.66-2.56-6.42-2.56-3.46,0-6.21.8-8.18,2.37-1.99,1.59-3.51,3.65-4.51,6.11-1.02,2.5-1.67,5.27-1.94,8.22-.27,2.98-.42,5.86-.43,8.57-.02,4.13.2,7.99.63,11.47.44,3.44,1.41,6.46,2.89,8.97.27.45.56.89.87,1.31l-2.61-3.49c-.31-.42-.6-.85-.87-1.31-1.48-2.51-2.45-5.53-2.89-8.97-.44-3.47-.65-7.34-.63-11.47,0-2.71.16-5.59.43-8.57.26-2.95.92-5.72,1.94-8.22,1-2.47,2.52-4.52,4.51-6.11,1.97-1.57,4.72-2.37,8.18-2.37,2.76,0,4.92.86,6.42,2.56.15.17.29.34.42.52Z" fill="#737373" stroke-width="0"/>
        <path d="M144.85,3.63l2.61,3.49c1.35,1.81,2.04,4.06,2.03,6.7,0,1.04-.12,2.06-.35,3.05-.22.97-.47,1.93-.77,2.88-.29.93-.59,1.89-.91,2.84-.31.94-.56,1.89-.75,2.82-.68,3.21-1.02,6.46-1.03,9.67,0,.62.01,1.34.06,2.16.04.8.17,1.58.37,2.34.15.58.4,1.09.73,1.53l-2.61-3.49c-.33-.44-.58-.95-.73-1.53-.2-.76-.33-1.54-.37-2.34-.05-.83-.07-1.54-.06-2.16.01-3.21.36-6.46,1.03-9.67.18-.93.44-1.88.75-2.82.32-.95.62-1.9.91-2.84.3-.95.56-1.91.77-2.88.23-.99.35-2.01.35-3.05,0-2.64-.67-4.89-2.03-6.7Z" fill="#737373" stroke-width="0"/>
        <path d="M145.14,39.85c.19.71.49,1.33.9,1.87l-2.61-3.49c-.4-.54-.71-1.17-.9-1.87-.05-.2-.1-.41-.15-.62.87,1.16,1.74,2.33,2.61,3.49.04.21.09.41.15.62Z" fill="#a684ff" stroke-width="0"/>
        <path d="M154.87,41.14l2.61,3.49c-.46-.62-.99-1.16-1.57-1.61-.78-.6-1.61-.9-2.57-.9-.74,0-1.45.14-2.1.42-.77.34-1.62.51-2.5.51-1.01,0-1.81-.33-2.41-.99-.1-.11-.19-.23-.28-.34l-2.61-3.49c.09.12.18.23.28.34.6.66,1.41.99,2.41.99.88,0,1.73-.17,2.5-.51.66-.28,1.37-.42,2.1-.42.95,0,1.79.3,2.57.9.58.46,1.11,1,1.57,1.61Z" fill="#737373" stroke-width="0"/>
        <path d="M157.67,44.95c-.77-1.03-1.55-2.05-2.31-3.08.77,1.03,1.54,2.05,2.31,3.08Z" fill="#a684ff" stroke-width="0"/>
        <path d="M157.98,45.36c.57.94,1.02,1.96,1.34,3.01-.87-1.16-1.74-2.33-2.61-3.49-.32-1.05-.77-2.06-1.34-3.01h0c.86,1.17,1.74,2.32,2.61,3.49l-2.61-3.49c-.15-.25-.32-.5-.49-.73l2.61,3.49c.17.23.34.48.49.73Z" fill="#a684ff" stroke-width="0"/>
        <path d="M159.31,48.37h0c-.87-1.16-1.74-2.32-2.61-3.49,0,0,0,0,0,0h0c.87,1.16,1.74,2.32,2.61,3.49,0,0,0,0,0,0Z" fill="#a684ff" stroke-width="0"/>
        <path d="M143.63,54.8c.05.04.09.12.13.17.33.45.67.89,1,1.34.09.12.21.28.3.4s.21.28.3.4c.19.26.38.51.57.77-.77-1.03-1.54-2.05-2.31-3.08,0,0,0,0,0,0Z" fill="#a684ff" stroke-width="0"/>
        <path d="M155.68,40.55l2.61,3.49c.19.26.37.52.54.8.61,1.01,1.1,2.11,1.44,3.24l-2.61-3.49c-.34-1.13-.83-2.23-1.44-3.24-.17-.28-.35-.54-.54-.8Z" fill="#737373" stroke-width="0"/>
        <path d="M134.71,56.19c-2.28-1.14-4.15-2.66-5.55-4.54l-2.61-3.49c1.41,1.88,3.27,3.4,5.55,4.54,2.81,1.39,6.69,2.1,11.52,2.1.87,1.16,1.74,2.32,2.61,3.49-.87-1.16-1.74-2.32-2.61-3.49h0c1.12,0,2.48-.11,4.04-.32.87,1.16,1.74,2.33,2.61,3.49-1.56.22-2.91.32-4.04.32-4.84,0-8.72-.71-11.52-2.1Z" fill="#a684ff" stroke-width="0"/>
        <path d="M150.27,57.97h0c-.87-1.16-1.74-2.33-2.61-3.49,0,0,0,0,0,0,0,0,0,0,0,0,.49.66.98,1.32,1.48,1.97.05.07.12.16.17.23.17.22.33.44.5.67.09.13.22.29.31.42.04.06.15.13.15.2,0,0,0,0,0,0Z" fill="#a684ff" stroke-width="0"/>
        <path d="M152.15,53.32c.87,1.16,1.74,2.32,2.61,3.49-.87-1.16-1.74-2.32-2.61-3.49,0,0,0,0,0,0Z" fill="#a684ff" stroke-width="0"/>
        <path d="M158.08,54.17c-.77-1.03-1.54-2.05-2.31-3.08,0,0,0,0,0,0,.77,1.03,1.54,2.05,2.31,3.08Z" fill="#a684ff" stroke-width="0"/>
        <path d="M154.76,56.81c-1.44.57-2.95.95-4.49,1.16-.87-1.16-1.74-2.33-2.61-3.49h0c1.54-.21,3.05-.59,4.49-1.16,1.42-.55,2.64-1.29,3.62-2.23h0s0,0,0,0c.77,1.03,1.54,2.05,2.31,3.08.1.14.2.27.3.41l-2.61-3.49c.94-.89,1.4-1.98,1.41-3.34,0-.85-.16-1.81-.47-2.87.87,1.16,1.74,2.33,2.61,3.49.32,1.06.48,2.02.47,2.87,0,1.36-.47,2.45-1.41,3.34-.98.93-2.2,1.68-3.62,2.23ZM157.18,47.75h0s.13.17.13.17l.13.18.14.19.14.19.14.19.15.2.15.2.15.2.15.2.15.2.15.2.15.2.15.2.14.19.14.19.14.19.02.03.02.03.02.03.02.03.02.03.02.03.02.03.02.03.02.03.02.03.02.03.02.03.02.02.02.02.02.02.02.02-.02-.02-.02-.02-.02-.02-.02-.02-.02-.03-.02-.03-.02-.03-.02-.03-.02-.03-.02-.03-.02-.03-.02-.03-.02-.03-.02-.03-.02-.03-.02-.03-.14-.19-.14-.19-.14-.19-.15-.2-.15-.2-.15-.2-.15-.2-.15-.2-.15-.2-.15-.2-.15-.2-.14-.19-.14-.19-.14-.19-.13-.18-.13-.17M152.15,53.32h0s0,0,0,0h0s0,0,0,0h0s0,0,0,0h0s0,0,0,0h0s0,0,0,0h0s0,0,0,0h0s0,0,0,0h0s0,0,0,0l.15.2.16.21.16.21.16.22.17.22.17.23.17.23.17.23.17.23.17.23.17.23.17.22.16.22.16.21.16.21.15.2-.15-.2-.16-.21-.16-.21-.16-.22-.17-.22-.17-.23-.17-.23-.17-.23-.17-.23-.17-.23-.17-.23-.17-.22-.16-.22-.16-.21-.16-.21-.15-.2" fill="#a684ff" stroke-width="0"/>
        <path d="M128.35,52.24l-2.61-3.49c1.5,2.01,3.49,3.63,5.92,4.83,2.94,1.46,6.98,2.21,11.96,2.21,1.17,0,2.57-.11,4.17-.33,1.61-.22,3.2-.63,4.71-1.21,1.55-.59,2.87-1.42,3.95-2.44,1.13-1.07,1.71-2.43,1.71-4.06,0-.95-.17-2.01-.52-3.16l2.61,3.49c.35,1.15.52,2.21.52,3.16,0,1.63-.59,2.99-1.71,4.06-1.08,1.02-2.41,1.85-3.95,2.44-1.51.58-3.1,1-4.71,1.21-1.6.22-3,.33-4.17.33-4.99,0-9.02-.75-11.96-2.21-2.43-1.21-4.42-2.83-5.92-4.83Z" fill="#737373" stroke-width="0"/>
        <path d="M157.66,44.59c.35,1.15.52,2.21.52,3.16,0,1.63-.59,2.99-1.71,4.06-1.08,1.02-2.41,1.85-3.95,2.44-1.51.58-3.1,1-4.71,1.21-1.6.22-3,.33-4.17.33-4.99,0-9.02-.75-11.96-2.21-2.97-1.47-5.27-3.56-6.84-6.22-1.55-2.63-2.56-5.78-3.01-9.36-.45-3.51-.66-7.42-.64-11.59.01-2.74.16-5.65.43-8.66.28-3.04.95-5.91,2.01-8.5,1.07-2.63,2.69-4.83,4.81-6.53,2.15-1.71,5.11-2.59,8.81-2.59,3.06,0,5.47.97,7.16,2.9,1.67,1.9,2.52,4.35,2.51,7.29,0,1.04-.12,2.06-.35,3.05-.22.97-.47,1.93-.77,2.88-.29.93-.59,1.89-.91,2.84-.31.94-.56,1.89-.75,2.82-.68,3.21-1.02,6.46-1.03,9.67,0,.62.01,1.34.06,2.16.04.8.17,1.58.37,2.34.19.71.52,1.31.96,1.8.41.45.96.66,1.68.66s1.46-.14,2.1-.43c.78-.33,1.62-.5,2.5-.5,1.17,0,2.24.37,3.18,1.1.91.71,1.68,1.59,2.31,2.61.61,1.01,1.1,2.11,1.44,3.24ZM155.77,51.09c.94-.89,1.4-1.98,1.41-3.34,0-.85-.16-1.81-.47-2.87-.32-1.05-.77-2.06-1.34-3.01-.56-.92-1.26-1.71-2.07-2.34-.78-.6-1.61-.9-2.57-.9-.74,0-1.45.14-2.1.42-.77.34-1.62.51-2.5.51-1.01,0-1.81-.33-2.41-.99-.55-.61-.95-1.36-1.18-2.22-.22-.83-.36-1.68-.4-2.55-.05-.84-.07-1.58-.06-2.22.01-3.28.37-6.6,1.05-9.87.19-.97.46-1.95.77-2.93.32-.95.62-1.89.91-2.83.29-.92.55-1.86.76-2.8.21-.92.32-1.87.32-2.84,0-2.68-.75-4.92-2.26-6.63-1.49-1.7-3.66-2.56-6.42-2.56-3.46,0-6.21.8-8.18,2.37-1.99,1.59-3.51,3.65-4.51,6.11-1.02,2.5-1.67,5.27-1.94,8.22-.27,2.98-.42,5.86-.43,8.57-.02,4.13.2,7.99.63,11.47.44,3.44,1.41,6.46,2.89,8.97,1.46,2.49,3.63,4.45,6.42,5.84,2.81,1.39,6.69,2.1,11.52,2.1,1.12,0,2.48-.11,4.04-.32,1.54-.21,3.05-.59,4.49-1.16,1.42-.55,2.64-1.29,3.62-2.23" fill="#737373" stroke-width="0"/>
        <path d="M137.21,1.14c2.76,0,4.92.86,6.42,2.56,1.5,1.71,2.27,3.95,2.26,6.63,0,.97-.11,1.92-.32,2.84-.21.94-.47,1.88-.76,2.8-.29.93-.59,1.88-.91,2.83-.32.98-.58,1.96-.77,2.93-.69,3.27-1.04,6.59-1.05,9.87,0,.64.01,1.37.06,2.22.04.87.18,1.72.4,2.55.23.86.63,1.61,1.18,2.22.6.66,1.41.99,2.41.99.88,0,1.73-.17,2.5-.51.66-.28,1.37-.42,2.1-.42.95,0,1.79.3,2.57.9.81.63,1.5,1.42,2.07,2.34.57.94,1.02,1.96,1.34,3.01.32,1.06.48,2.02.47,2.87,0,1.36-.47,2.45-1.41,3.34-.98.93-2.2,1.68-3.62,2.23-1.44.57-2.95.95-4.49,1.16-1.56.22-2.91.32-4.04.32-4.84,0-8.72-.71-11.52-2.1-2.79-1.39-4.96-3.36-6.42-5.84-1.48-2.51-2.45-5.53-2.89-8.97-.44-3.47-.65-7.34-.63-11.46,0-2.71.16-5.59.43-8.57.26-2.95.92-5.72,1.94-8.22,1-2.47,2.52-4.52,4.51-6.11,1.97-1.57,4.72-2.37,8.18-2.37Z" fill="#a684ff" stroke-width="0"/>
      </g>
      <g isolation="isolate">
        <path d="M187.95,13.41c-.24-.32-.48-.64-.72-.96-.09-.12-.21-.28-.3-.4-.04-.06-.1-.14-.15-.2s-.1-.14-.15-.2c-.09-.12-.21-.28-.29-.39-.19-.25-.37-.5-.56-.75-.04-.05-.09-.12-.13-.17,0,0,0,0,0,0,.77,1.03,1.54,2.05,2.31,3.08Z" fill="#a684ff" stroke-width="0"/>
        <path d="M185.32,13.17c.87,1.16,1.74,2.32,2.61,3.49-.43-.58-.87-1.16-1.3-1.74-.05-.07-.12-.16-.17-.23-.22-.3-.45-.6-.67-.89-.05-.06-.11-.15-.16-.21-.09-.12-.24-.27-.3-.41,0,0,0,0,0,0Z" fill="#a684ff" stroke-width="0"/>
        <path d="M187.93,16.66c-.21.94-.46,1.88-.76,2.8-.49-.66-.98-1.32-1.48-1.97-.1-.14-.24-.32-.34-.45-.05-.07-.12-.16-.17-.22s-.11-.15-.16-.22-.11-.15-.16-.21c-.09-.12-.26-.26-.3-.41,0,0,0,0,0,0,.29-.92.55-1.86.76-2.8.21-.92.32-1.87.32-2.84h0s0,0,0,0c0,0,0,0,0,0,0,0,0,0,0,0,.38.5.76,1.01,1.13,1.51.49.66.98,1.31,1.48,1.97-.87-1.16-1.74-2.33-2.61-3.49,0-2.42-.61-4.48-1.84-6.12l2.61,3.49c1.23,1.64,1.85,3.7,1.84,6.12,0,.97-.11,1.92-.32,2.84ZM185.32,13.17h0s0,0,0,0h0s0,0,0,0h0s0,0,0,0h0s0,0,0,0h0s0,0,0,0h0s0,0,0,0h0s0,0,0,0h0s0,0,0,0l.15.2.16.21.16.21.16.22.17.22.17.23.17.23.17.23.17.23.17.23.17.23.17.22.16.22.16.21.16.21.15.2-.15-.2-.16-.21-.16-.21-.16-.22-.17-.22-.17-.23-.17-.23-.17-.23-.17-.23-.17-.23-.17-.23-.17-.22-.16-.22-.16-.21-.16-.21-.15-.2" fill="#a684ff" stroke-width="0"/>
        <path d="M183.81,4.22l2.61,3.49c-.13-.18-.27-.35-.42-.52-1.49-1.7-3.66-2.56-6.42-2.56-3.46,0-6.21.8-8.18,2.37-1.99,1.59-3.51,3.65-4.51,6.11-1.02,2.5-1.67,5.27-1.94,8.22-.27,2.98-.42,5.86-.43,8.57-.02,4.13.2,7.99.63,11.47.44,3.44,1.41,6.46,2.89,8.97.27.45.56.89.87,1.31l-2.61-3.49c-.31-.42-.6-.85-.87-1.31-1.48-2.51-2.45-5.53-2.89-8.97-.44-3.47-.65-7.34-.63-11.47,0-2.71.16-5.59.43-8.57.26-2.95.92-5.72,1.94-8.22,1-2.47,2.52-4.52,4.51-6.11,1.97-1.57,4.72-2.37,8.18-2.37,2.76,0,4.92.86,6.42,2.56.15.17.29.34.42.52Z" fill="#737373" stroke-width="0"/>
        <path d="M184.91,39.85c.19.71.49,1.33.9,1.87l-2.61-3.49c-.4-.54-.71-1.17-.9-1.87-.22-.83-.36-1.68-.4-2.55-.05-.84-.07-1.58-.06-2.22.01-3.28.37-6.6,1.05-9.87.19-.97.46-1.95.77-2.93,0,0,0,0,0,0,.87,1.16,1.74,2.32,2.61,3.48-.87-1.16-1.74-2.32-2.61-3.48h0c.32-.95.62-1.89.91-2.82.87,1.16,1.74,2.32,2.61,3.48-.87-1.16-1.74-2.32-2.61-3.48,0,0,0,0,0,0,0,0,0,0,0,0,0,0,2.61,3.49,2.61,3.49h0s0,0,0,0c-.29.93-.59,1.88-.91,2.83-.32.98-.58,1.96-.77,2.93-.69,3.27-1.04,6.59-1.05,9.87,0,.64.01,1.37.06,2.22.04.87.18,1.72.4,2.55Z" fill="#a684ff" stroke-width="0"/>
        <path d="M184.61,3.63l2.61,3.49c1.35,1.81,2.04,4.06,2.03,6.7,0,1.04-.12,2.06-.35,3.05-.22.97-.47,1.93-.77,2.88-.29.93-.59,1.89-.91,2.84-.31.94-.56,1.89-.75,2.82-.68,3.21-1.02,6.46-1.03,9.67,0,.62.01,1.34.06,2.16.04.8.16,1.58.37,2.34.15.58.4,1.09.73,1.53l-2.61-3.49c-.33-.44-.58-.95-.73-1.53-.2-.76-.33-1.54-.37-2.34-.05-.83-.07-1.54-.06-2.16.01-3.21.36-6.46,1.03-9.67.18-.93.44-1.88.75-2.82.32-.95.62-1.9.91-2.84.3-.95.56-1.91.77-2.88.23-.99.35-2.01.35-3.05,0-2.64-.67-4.89-2.03-6.7Z" fill="#737373" stroke-width="0"/>
        <path d="M194.63,41.14l2.61,3.49c-.46-.62-.99-1.16-1.57-1.61-.78-.6-1.61-.9-2.57-.9-.74,0-1.45.14-2.1.42-.77.34-1.62.51-2.5.51-1.01,0-1.81-.33-2.41-.99-.1-.11-.19-.23-.28-.34l-2.61-3.49c.09.12.18.23.28.34.6.66,1.41.99,2.41.99.88,0,1.73-.17,2.5-.51.66-.28,1.37-.42,2.1-.42.95,0,1.79.3,2.57.9.58.46,1.11,1,1.57,1.61Z" fill="#737373" stroke-width="0"/>
        <path d="M197.74,45.36c.57.94,1.02,1.96,1.34,3.01-.87-1.16-1.74-2.33-2.61-3.49-.32-1.05-.77-2.06-1.34-3.01h0c.25.36.53.71.79,1.06.61.81,1.21,1.62,1.82,2.43-.87-1.16-1.74-2.33-2.61-3.49-.15-.25-.32-.5-.49-.73l2.61,3.49c.17.23.34.48.49.73Z" fill="#a684ff" stroke-width="0"/>
        <path d="M199.08,48.37h0c-.87-1.16-1.74-2.32-2.61-3.49,0,0,0,0,0,0h0c.04.06.1.14.15.2.82,1.1,1.64,2.19,2.46,3.29,0,0,0,0,0,0Z" fill="#a684ff" stroke-width="0"/>
        <path d="M183.39,54.8c.11.07.19.25.27.35.29.39.58.77.87,1.16.39.52.78,1.04,1.17,1.56-.77-1.03-1.54-2.05-2.31-3.08,0,0,0,0,0,0Z" fill="#a684ff" stroke-width="0"/>
        <path d="M195.44,40.55l2.61,3.49c.19.26.37.52.54.8.61,1.01,1.1,2.11,1.44,3.24l-2.61-3.49c-.34-1.13-.83-2.23-1.44-3.24-.17-.28-.35-.54-.54-.8Z" fill="#737373" stroke-width="0"/>
        <path d="M174.47,56.19c-2.28-1.14-4.15-2.66-5.55-4.54l-2.61-3.49c1.41,1.88,3.27,3.4,5.55,4.54.87,1.16,1.74,2.33,2.61,3.49-.67-.9-1.35-1.8-2.02-2.7-.11-.14-.21-.29-.32-.43-.01-.02-.03-.04-.04-.05s-.03-.04-.04-.05c-.04-.05-.08-.1-.11-.15-.02-.03-.06-.06-.07-.1,2.81,1.39,6.69,2.1,11.52,2.1.87,1.16,1.74,2.32,2.61,3.49-.87-1.16-1.74-2.32-2.61-3.49h0c1.12,0,2.48-.11,4.04-.32.87,1.16,1.74,2.33,2.61,3.49-1.56.22-2.91.32-4.04.32-4.84,0-8.72-.71-11.52-2.1Z" fill="#a684ff" stroke-width="0"/>
        <path d="M190.03,57.97h0c-.87-1.16-1.74-2.33-2.61-3.49,0,0,0,0,0,0,0,0,0,0,0,0,.49.66.98,1.32,1.48,1.97.05.07.12.16.17.23.27.36.54.72.81,1.09.04.06.15.13.15.2,0,0,0,0,0,0Z" fill="#a684ff" stroke-width="0"/>
        <path d="M191.91,53.32c.87,1.16,1.74,2.32,2.61,3.49-.87-1.16-1.74-2.32-2.61-3.49,0,0,0,0,0,0Z" fill="#a684ff" stroke-width="0"/>
        <path d="M194.52,56.81c-1.44.57-2.95.95-4.49,1.16-.87-1.16-1.74-2.33-2.61-3.49h0c1.54-.21,3.05-.59,4.49-1.16,1.42-.55,2.64-1.29,3.62-2.23h0s0,0,0,0c.87,1.16,1.74,2.32,2.61,3.49-.87-1.16-1.74-2.33-2.61-3.49.94-.89,1.4-1.98,1.41-3.34h0,0s0,0,0,0h0s0,0,0,0c0,0,0,0,0,0,0,0,0,0,0,0,0,0,0,0,0,0,0,0,0,0,0,0,0,0,0,0,0,0,.38.51.76,1.01,1.13,1.52.49.66.98,1.31,1.48,1.97-.15-.2-.3-.4-.44-.59-.39-.53-.79-1.05-1.18-1.58-.09-.12-.21-.28-.29-.39-.19-.25-.37-.5-.56-.75-.04-.05-.13-.11-.13-.17,0-.85-.16-1.81-.47-2.87.87,1.16,1.74,2.33,2.61,3.49.32,1.06.48,2.02.47,2.87,0,1.36-.47,2.45-1.41,3.34-.98.93-2.2,1.68-3.62,2.23ZM191.91,53.32h0s0,0,0,0h0s0,0,0,0h0s0,0,0,0h0s0,0,0,0h0s0,0,0,0h0s0,0,0,0h0s0,0,0,0h0s0,0,0,0l.15.2.16.21.16.21.16.22.17.22.17.23.17.23.17.23.17.23.17.23.17.23.17.22.16.22.16.21.16.21.15.2-.15-.2-.16-.21-.16-.21-.16-.22-.17-.22-.17-.23-.17-.23-.17-.23-.17-.23-.17-.23-.17-.23-.17-.22-.16-.22-.16-.21-.16-.21-.15-.2" fill="#a684ff" stroke-width="0"/>
        <path d="M176.97,1.14c2.76,0,4.92.86,6.42,2.56,1.5,1.71,2.27,3.95,2.26,6.63,0,.97-.11,1.92-.32,2.84-.21.94-.47,1.88-.76,2.8-.29.93-.59,1.88-.91,2.83-.32.98-.58,1.96-.77,2.93-.69,3.27-1.04,6.59-1.05,9.87,0,.64.01,1.37.06,2.22.04.87.18,1.72.4,2.55.23.86.63,1.61,1.18,2.22.6.66,1.41.99,2.41.99.88,0,1.73-.17,2.5-.51.66-.28,1.37-.42,2.1-.42.95,0,1.79.3,2.57.9.81.63,1.5,1.42,2.07,2.34.57.94,1.02,1.96,1.34,3.01.32,1.06.48,2.02.47,2.87,0,1.36-.47,2.45-1.41,3.34-.98.93-2.2,1.68-3.62,2.23-1.44.57-2.95.95-4.49,1.16-1.56.22-2.91.32-4.04.32-4.84,0-8.72-.71-11.52-2.1-2.79-1.39-4.96-3.36-6.42-5.84-1.48-2.51-2.45-5.53-2.89-8.97-.44-3.47-.65-7.34-.63-11.46,0-2.71.16-5.59.43-8.57.26-2.95.92-5.72,1.94-8.22,1-2.47,2.52-4.52,4.51-6.11,1.97-1.57,4.72-2.37,8.18-2.37Z" fill="#a684ff" stroke-width="0"/>
        <path d="M168.11,52.24l-2.61-3.49c1.5,2.01,3.49,3.63,5.92,4.83,2.94,1.46,6.98,2.21,11.96,2.21,1.17,0,2.57-.11,4.17-.33,1.61-.22,3.2-.63,4.71-1.21,1.55-.59,2.87-1.42,3.95-2.44,1.13-1.07,1.71-2.43,1.71-4.06,0-.95-.17-2.01-.52-3.16l2.61,3.49c.35,1.15.52,2.21.52,3.16,0,1.63-.59,2.99-1.71,4.06-1.08,1.02-2.41,1.85-3.95,2.44-1.51.58-3.1,1-4.71,1.21-1.6.22-3,.33-4.17.33-4.99,0-9.02-.75-11.96-2.21-2.43-1.21-4.42-2.83-5.92-4.83Z" fill="#737373" stroke-width="0"/>
        <path d="M197.42,44.59c.35,1.15.52,2.21.52,3.16,0,1.63-.59,2.99-1.71,4.06-1.08,1.02-2.41,1.85-3.95,2.44-1.51.58-3.1,1-4.71,1.21-1.6.22-3,.33-4.17.33-4.99,0-9.02-.75-11.96-2.21-2.97-1.47-5.27-3.56-6.84-6.22-1.55-2.63-2.56-5.78-3.01-9.36-.45-3.51-.66-7.42-.64-11.59.01-2.74.16-5.65.43-8.66.27-3.04.95-5.91,2.01-8.5,1.06-2.63,2.69-4.83,4.81-6.53,2.15-1.71,5.11-2.59,8.81-2.59,3.06,0,5.47.97,7.16,2.9,1.67,1.9,2.52,4.35,2.51,7.29,0,1.04-.12,2.06-.35,3.05-.22.97-.47,1.93-.77,2.88-.29.93-.59,1.89-.91,2.84-.31.94-.56,1.89-.75,2.82-.68,3.21-1.02,6.46-1.03,9.67,0,.62.01,1.34.06,2.16.04.8.16,1.58.37,2.34.19.71.52,1.31.96,1.8.41.45.96.66,1.68.66s1.46-.14,2.1-.43c.78-.33,1.62-.5,2.5-.5,1.17,0,2.24.37,3.18,1.1.91.71,1.68,1.59,2.31,2.61.61,1.01,1.1,2.11,1.44,3.24ZM195.53,51.09c.94-.89,1.4-1.98,1.41-3.34,0-.85-.16-1.81-.47-2.87-.32-1.05-.77-2.06-1.34-3.01-.56-.92-1.26-1.71-2.07-2.34-.78-.6-1.61-.9-2.57-.9-.74,0-1.45.14-2.1.42-.77.34-1.62.51-2.5.51-1.01,0-1.81-.33-2.41-.99-.55-.61-.95-1.36-1.18-2.22-.22-.83-.36-1.68-.4-2.55-.05-.84-.07-1.58-.06-2.22.01-3.28.37-6.6,1.05-9.87.19-.97.46-1.95.77-2.93.32-.95.62-1.89.91-2.83.29-.92.55-1.86.76-2.8.21-.92.32-1.87.32-2.84,0-2.68-.75-4.92-2.26-6.63-1.49-1.7-3.66-2.56-6.42-2.56-3.46,0-6.21.8-8.18,2.37-1.99,1.59-3.51,3.65-4.51,6.11-1.02,2.5-1.67,5.27-1.94,8.22-.27,2.98-.42,5.86-.43,8.57-.02,4.13.2,7.99.63,11.47.44,3.44,1.41,6.46,2.89,8.97,1.46,2.49,3.63,4.45,6.42,5.84,2.81,1.39,6.69,2.1,11.52,2.1,1.12,0,2.48-.11,4.04-.32,1.54-.21,3.05-.59,4.49-1.16,1.42-.55,2.64-1.29,3.62-2.23" fill="#737373" stroke-width="0"/>
      </g>
      <g isolation="isolate">
        <path d="M227.46,26.18c-.77,0-1.4.28-1.85.83-.87-1.16-1.74-2.33-2.61-3.49.45-.55,1.08-.83,1.85-.83.87,1.16,1.74,2.33,2.61,3.49Z" fill="#fe9a00" stroke-width="0"/>
        <path d="M225.6,27.01c-.41.48-.72,1.09-.93,1.8-.87-1.16-1.74-2.33-2.61-3.49.21-.71.53-1.32.93-1.8.87,1.16,1.74,2.33,2.61,3.49Z" fill="#fe9a00" stroke-width="0"/>
        <path d="M241.82,14.91c.17.23.34.47.51.71-.87-1.16-1.74-2.33-2.61-3.49-.16-.24-.33-.48-.51-.71.78,1.05,1.83,2.44,2.61,3.49Z" fill="#fe9a00" stroke-width="0"/>
        <path d="M224.67,28.81c-.05.15-.09.29-.12.45-.87-1.16-1.74-2.33-2.61-3.49.04-.15.08-.3.12-.45.87,1.16,1.74,2.33,2.61,3.49Z" fill="#fe9a00" stroke-width="0"/>
        <path d="M224.55,29.25c-.14.55-.22,1.15-.26,1.78-.87-1.16-1.74-2.33-2.61-3.49.04-.63.12-1.23.26-1.78.87,1.16,1.74,2.33,2.61,3.49Z" fill="#fe9a00" stroke-width="0"/>
        <path d="M229.66,27.13c-.6-.63-1.34-.94-2.2-.94-.87-1.16-1.74-2.33-2.61-3.49.86,0,1.6.31,2.2.94.87,1.16,1.74,2.33,2.61,3.49Z" fill="#fe9a00" stroke-width="0"/>
        <path d="M230.07,27.62c-.13-.17-.27-.34-.41-.49-.87-1.16-1.74-2.33-2.61-3.49.14.15.28.32.41.49.78,1.05,1.83,2.44,2.61,3.49Z" fill="#fe9a00" stroke-width="0"/>
        <path d="M224.29,31.03c-.06.77-.08,1.51-.08,2.18-.87-1.16-1.74-2.33-2.61-3.49,0-.67.02-1.41.08-2.18.44.58.87,1.16,1.31,1.74.05.07.12.16.17.23.1.14.24.32.34.45.05.07.12.16.17.22.1.13.23.3.32.43.09.12.26.26.3.41Z" fill="#fe9a00" stroke-width="0"/>
        <path d="M227.46,24.13l2.61,3.49c.36.48.66,1.03.9,1.64l-2.61-3.49c-.24-.62-.55-1.17-.9-1.64Z" fill="#737373" stroke-width="0"/>
        <path d="M224.21,33.21c0,.7.04,1.45.14,2.22-.87-1.16-1.74-2.33-2.61-3.49-.1-.77-.14-1.52-.14-2.22.44.58.87,1.16,1.31,1.74.17.23.34.45.51.68.21.29.43.57.64.86.04.06.13.13.15.2Z" fill="#fe9a00" stroke-width="0"/>
        <path d="M224.34,35.43c.1.8.26,1.54.49,2.22-.87-1.16-1.74-2.33-2.61-3.49-.22-.67-.39-1.42-.49-2.22.44.58.87,1.16,1.31,1.74.1.14.24.32.34.46.22.29.44.59.66.88.09.12.25.27.3.41Z" fill="#fe9a00" stroke-width="0"/>
        <path d="M242.33,15.62c1.64,2.39,2.94,5.11,3.86,8.09-.87-1.16-1.74-2.33-2.61-3.49-.92-2.98-2.23-5.7-3.86-8.09.44.58.87,1.16,1.31,1.74.44.58.88,1.15,1.31,1.74Z" fill="#fe9a00" stroke-width="0"/>
        <path d="M224.83,37.65c.19.57.44,1.08.76,1.5l-2.61-3.49c-.32-.42-.57-.93-.76-1.5.44.58.87,1.16,1.31,1.74.05.07.12.16.17.23s.12.16.17.23c.1.13.23.31.34.45s.23.3.32.43c.09.12.23.27.3.41Z" fill="#fe9a00" stroke-width="0"/>
        <path d="M226.68,24.76l2.61,3.49c-.11-.15-.23-.29-.36-.43-.4-.43-.89-.64-1.47-.64-.48,0-.82.14-1.09.47-.32.38-.56.86-.73,1.44-.19.61-.3,1.28-.35,2.01-.06.75-.08,1.46-.08,2.12s.04,1.36.13,2.09c.09.74.24,1.41.44,2.03.16.47.36.88.62,1.22l-2.61-3.49c-.25-.34-.46-.75-.62-1.22-.2-.62-.35-1.29-.44-2.03-.09-.74-.13-1.44-.13-2.09s.02-1.37.08-2.12c.05-.73.16-1.4.35-2.01.17-.57.42-1.06.73-1.44.27-.32.61-.47,1.09-.47.58,0,1.07.21,1.47.64.13.13.25.27.36.43Z" fill="#737373" stroke-width="0"/>
        <path d="M239.21,11.42l2.61,3.49c-1.54-2.05-3.43-3.76-5.64-5.07-2.45-1.45-5.46-2.19-8.94-2.19s-6.53.74-9.03,2.19c-2.52,1.47-4.66,3.41-6.38,5.79-1.72,2.39-3.12,5.14-4.16,8.2-1.05,3.08-1.88,6.23-2.46,9.37-.58,3.15-.97,6.23-1.14,9.13-.18,2.91-.27,5.49-.28,7.69,0,1.13.22,2.29.67,3.45.35.88.79,1.69,1.33,2.42l-2.61-3.49c-.54-.73-.99-1.54-1.33-2.42-.45-1.16-.67-2.32-.67-3.45,0-2.2.1-4.79.28-7.69.17-2.9.56-5.98,1.14-9.13.58-3.14,1.41-6.29,2.46-9.37,1.04-3.05,2.45-5.81,4.16-8.2,1.72-2.38,3.85-4.32,6.38-5.79,2.5-1.45,5.54-2.19,9.03-2.19s6.5.74,8.94,2.19c2.21,1.31,4.1,3.02,5.64,5.07Z" fill="#737373" stroke-width="0"/>
        <path d="M206.33,56.55c-.19-.21-.37-.43-.54-.66l-2.61-3.49c.17.23.35.45.54.66.87,1.16,1.74,2.33,2.61,3.49Z" fill="#fe9a00" stroke-width="0"/>
        <path d="M225.58,39.15l-2.61-3.49c.07.1.15.2.24.29.47.54,1.08.82,1.8.82,1.26,0,2.28-.48,3.05-1.4.75-.91,1.13-2.27,1.14-4.06,0-.87-.06-1.8-.18-2.79-.12-1-.34-1.91-.66-2.74l2.61,3.49c.32.83.54,1.74.66,2.74.12.99.18,1.92.18,2.79,0,1.79-.39,3.15-1.14,4.06-.77.92-1.79,1.4-3.05,1.4-.72,0-1.33-.28-1.8-.82-.08-.09-.16-.19-.24-.29Z" fill="#737373" stroke-width="0"/>
        <path d="M232.27,47.42c-.64-.86-1.99-1.27-4.1-1.27-.87-1.16-1.74-2.33-2.61-3.49,2.11,0,3.46.41,4.1,1.27.78,1.05,1.83,2.44,2.61,3.49Z" fill="#fe9a00" stroke-width="0"/>
        <path d="M225.34,46.96c-.76.51-1.39,1.21-1.89,2.06-.87-1.16-1.74-2.33-2.61-3.49.5-.85,1.13-1.55,1.89-2.06.87,1.16,1.74,2.33,2.61,3.49Z" fill="#fe9a00" stroke-width="0"/>
        <path d="M228.18,46.15c-1.11,0-2.06.27-2.83.81-.87-1.16-1.74-2.33-2.61-3.49.77-.54,1.73-.81,2.83-.81.87,1.16,1.74,2.33,2.61,3.49Z" fill="#fe9a00" stroke-width="0"/>
        <path d="M223.46,49.02c-.47.81-.9,1.74-1.27,2.77-.87-1.16-1.74-2.33-2.61-3.49.37-1.03.8-1.97,1.27-2.77.87,1.16,1.74,2.33,2.61,3.49Z" fill="#fe9a00" stroke-width="0"/>
        <path d="M222.19,51.8c-.19.52-.38,1.05-.57,1.58-.87-1.16-1.74-2.33-2.61-3.49.19-.54.39-1.06.57-1.58.87,1.16,1.74,2.33,2.61,3.49Z" fill="#fe9a00" stroke-width="0"/>
        <path d="M221.61,53.38c-.06.17-.12.33-.18.5-.87-1.16-1.74-2.33-2.61-3.49.06-.17.12-.34.18-.5.87,1.16,1.74,2.33,2.61,3.49Z" fill="#fe9a00" stroke-width="0"/>
        <path d="M221.43,53.89c-.12.33-.24.67-.37,1.01-.87-1.16-1.74-2.33-2.61-3.49.12-.34.25-.68.37-1.01.87,1.16,1.74,2.33,2.61,3.49Z" fill="#fe9a00" stroke-width="0"/>
        <path d="M228.87,44.55l2.61,3.49c-.43-.58-1.57-.89-3.3-.89-.9,0-1.66.21-2.27.63-.63.43-1.16,1.02-1.59,1.74-.43.75-.84,1.63-1.19,2.61-.36,1.01-.74,2.04-1.13,3.09l-2.61-3.49c.39-1.05.77-2.08,1.13-3.09.35-.98.75-1.86,1.19-2.61.43-.72.96-1.31,1.59-1.74.6-.42,1.37-.63,2.27-.63,1.73,0,2.87.31,3.3.89Z" fill="#737373" stroke-width="0"/>
        <path d="M229.66,43.94l2.61,3.49s.07.09.09.14c.55.88.83,2.18.82,3.97,0,.91.09,1.69.29,2.33.11.36.27.68.48.95l-2.61-3.49c-.21-.27-.36-.59-.48-.95-.2-.65-.29-1.43-.29-2.33,0-1.79-.27-3.09-.82-3.97-.03-.05-.06-.09-.09-.14Z" fill="#737373" stroke-width="0"/>
        <path d="M248.53,51.52c-.36.71-.8,1.34-1.32,1.9-.87-1.16-1.74-2.33-2.61-3.49h0c.52-.56.97-1.19,1.32-1.9.87,1.16,1.74,2.33,2.61,3.49Z" fill="#fe9a00" stroke-width="0"/>
        <path d="M247.21,53.42c-.15.16-.3.31-.46.45-.44-.58-.87-1.16-1.31-1.74-.44-.58-.87-1.16-1.31-1.74h0c.16-.14.31-.3.46-.45.87,1.16,1.74,2.33,2.61,3.49Z" fill="#fe9a00" stroke-width="0"/>
        <path d="M246.55,37.83c.11,2.76.16,5.05.15,6.83,0,1.21-.27,2.34-.79,3.37-.53,1.04-1.24,1.92-2.11,2.64-.89.73-1.91,1.3-3.03,1.71-1.12.41-2.28.62-3.46.62-1.39,0-2.56-.11-3.48-.31-.88-.2-1.56-.48-2.03-.87-.45-.37-.76-.84-.95-1.45-.2-.65-.29-1.43-.29-2.33,0-1.79-.27-3.09-.82-3.97-.6-.95-1.97-1.41-4.19-1.41-1.11,0-2.06.27-2.83.81-.76.51-1.39,1.21-1.89,2.06-.47.81-.9,1.74-1.27,2.77-.36,1.01-.74,2.03-1.13,3.1-.33.94-.72,1.73-1.16,2.33-.44.59-.97,1.06-1.58,1.41-.62.35-1.4.59-2.31.73-.95.14-2.15.22-3.56.22-1.2,0-2.33-.29-3.35-.83-1.05-.57-1.98-1.31-2.77-2.2-.8-.88-1.42-1.92-1.88-3.08-.45-1.16-.67-2.32-.67-3.45,0-2.2.1-4.79.28-7.69.17-2.9.56-5.98,1.14-9.13.58-3.14,1.41-6.29,2.46-9.37,1.04-3.05,2.45-5.81,4.16-8.2,1.72-2.38,3.85-4.32,6.38-5.79,2.5-1.45,5.54-2.19,9.03-2.19s6.5.74,8.94,2.19c2.46,1.46,4.53,3.41,6.14,5.78,1.64,2.39,2.94,5.11,3.86,8.09.94,3,1.65,6.03,2.11,9.01.47,2.99.76,5.88.87,8.6ZM228.06,35.36c.75-.91,1.13-2.27,1.14-4.06,0-.87-.06-1.8-.18-2.79-.12-1-.34-1.91-.66-2.74-.33-.84-.78-1.56-1.31-2.14-.6-.63-1.34-.94-2.2-.94-.77,0-1.4.28-1.85.83-.41.48-.72,1.09-.93,1.8-.21.67-.34,1.43-.39,2.23-.06.77-.08,1.51-.08,2.18s.04,1.45.14,2.22c.1.8.26,1.54.49,2.22.23.71.56,1.31.99,1.79.47.54,1.08.82,1.8.82,1.26,0,2.28-.48,3.05-1.4" fill="#fe9a00" stroke-width="0"/>
        <path d="M209.1,58.75c-1.05-.57-1.98-1.31-2.77-2.2-.87-1.16-1.74-2.33-2.61-3.49.79.89,1.72,1.63,2.77,2.2.87,1.16,1.74,2.33,2.61,3.49Z" fill="#fe9a00" stroke-width="0"/>
        <path d="M246.19,23.71c.94,3,1.65,6.03,2.11,9.01-.87-1.16-1.74-2.33-2.61-3.49-.46-2.98-1.16-6.02-2.11-9.01.44.58.87,1.16,1.31,1.74.05.07.12.16.17.23.33.44.66.88.98,1.32.04.06.12.13.15.2Z" fill="#fe9a00" stroke-width="0"/>
        <path d="M212.45,59.58c-1.2,0-2.33-.29-3.35-.83-.87-1.16-1.74-2.33-2.61-3.49,1.02.55,2.14.83,3.35.83.87,1.16,1.74,2.33,2.61,3.49Z" fill="#fe9a00" stroke-width="0"/>
        <path d="M216.01,59.37c-.95.14-2.15.22-3.56.22-.87-1.16-1.74-2.33-2.61-3.49,1.41,0,2.61-.07,3.56-.22.87,1.16,1.74,2.33,2.61,3.49Z" fill="#fe9a00" stroke-width="0"/>
        <path d="M221.06,54.9c-.33.94-.72,1.73-1.16,2.33-.87-1.16-1.74-2.33-2.61-3.49.44-.6.83-1.39,1.16-2.33.87,1.16,1.74,2.33,2.61,3.49Z" fill="#fe9a00" stroke-width="0"/>
        <path d="M218.33,58.64c-.62.35-1.4.59-2.31.73-.87-1.16-1.74-2.33-2.61-3.49.92-.13,1.69-.38,2.31-.73.87,1.16,1.74,2.33,2.61,3.49Z" fill="#fe9a00" stroke-width="0"/>
        <path d="M219.9,57.23c-.44.59-.97,1.06-1.58,1.41-.87-1.16-1.74-2.33-2.61-3.49.6-.35,1.14-.82,1.58-1.41.87,1.16,1.74,2.33,2.61,3.49Z" fill="#fe9a00" stroke-width="0"/>
        <path d="M248.3,32.72c.47,2.99.76,5.88.87,8.6l-2.61-3.49c-.11-2.72-.4-5.61-.87-8.6.44.58.87,1.16,1.31,1.74.1.14.24.32.34.46.17.22.33.44.5.67.09.13.22.29.31.42.04.06.12.13.15.2Z" fill="#fe9a00" stroke-width="0"/>
        <path d="M234.43,55.31c-.18-.15-.34-.31-.47-.49l-2.61-3.49c.14.18.29.35.47.49.87,1.16,1.74,2.33,2.61,3.49Z" fill="#fe9a00" stroke-width="0"/>
        <path d="M236.45,56.18c-.88-.2-1.56-.48-2.03-.87-.87-1.16-1.74-2.33-2.61-3.49.47.39,1.15.67,2.03.87.87,1.16,1.74,2.33,2.61,3.49Z" fill="#fe9a00" stroke-width="0"/>
        <path d="M249.16,41.32c.11,2.76.16,5.05.15,6.83-.87-1.16-1.74-2.33-2.61-3.49,0-1.78-.05-4.08-.15-6.83.78,1.05,1.83,2.44,2.61,3.49Z" fill="#fe9a00" stroke-width="0"/>
        <path d="M239.93,56.49c-1.39,0-2.56-.11-3.48-.31-.87-1.16-1.74-2.33-2.61-3.49.92.21,2.08.31,3.48.31.87,1.16,1.74,2.33,2.61,3.49Z" fill="#fe9a00" stroke-width="0"/>
        <path d="M249.32,48.15c0,1.21-.27,2.34-.79,3.37-.87-1.16-1.74-2.33-2.61-3.49.52-1.02.78-2.15.79-3.37.44.58.87,1.16,1.31,1.74.05.07.12.16.17.23.22.3.45.6.67.89.09.13.22.29.31.42.04.06.13.13.15.2Z" fill="#fe9a00" stroke-width="0"/>
        <path d="M243.39,55.87c-1.12.41-2.28.62-3.46.62-.87-1.16-1.74-2.33-2.61-3.49,1.19,0,2.35-.21,3.46-.62.87,1.16,1.74,2.33,2.61,3.49Z" fill="#fe9a00" stroke-width="0"/>
        <path d="M246.75,53.87c-.11.1-.22.2-.33.29-.87-1.16-1.74-2.33-2.61-3.49.11-.09.23-.19.33-.29.44.58.87,1.16,1.31,1.74.44.58.87,1.16,1.31,1.74Z" fill="#fe9a00" stroke-width="0"/>
        <path d="M246.42,54.16c-.89.73-1.91,1.3-3.03,1.71-.87-1.16-1.74-2.33-2.61-3.49,1.12-.41,2.13-.99,3.03-1.71.87,1.16,1.74,2.33,2.61,3.49Z" fill="#fe9a00" stroke-width="0"/>
        <path d="M233.15,55.42l-2.61-3.49c.18.25.4.47.64.66.58.48,1.4.84,2.43,1.07.99.22,2.24.34,3.7.34,1.3,0,2.58-.23,3.8-.68,1.22-.45,2.34-1.08,3.31-1.88.99-.81,1.79-1.8,2.37-2.96.59-1.17.89-2.45.89-3.82,0-1.81-.05-4.07-.15-6.88l2.61,3.49c.11,2.81.16,5.06.15,6.88,0,1.36-.31,2.65-.89,3.82-.59,1.16-1.38,2.15-2.37,2.96-.97.8-2.09,1.43-3.31,1.88-1.22.45-2.5.68-3.8.68-1.47,0-2.71-.12-3.7-.34-1.03-.22-1.85-.58-2.43-1.07-.24-.19-.45-.42-.64-.66Z" fill="#737373" stroke-width="0"/>
        <path d="M247.55,37.79c.11,2.81.16,5.06.15,6.88,0,1.36-.31,2.65-.89,3.82-.59,1.16-1.38,2.15-2.37,2.96-.97.8-2.09,1.43-3.31,1.88-1.22.45-2.5.68-3.8.68-1.47,0-2.71-.12-3.7-.34-1.03-.22-1.85-.58-2.43-1.07-.6-.48-1.03-1.14-1.27-1.92-.22-.75-.34-1.63-.33-2.63,0-1.57-.22-2.72-.67-3.43-.39-.62-1.55-.95-3.35-.95-.9,0-1.66.21-2.27.63-.63.43-1.16,1.02-1.59,1.74-.43.75-.84,1.63-1.19,2.61-.36,1.01-.74,2.04-1.13,3.09-.35,1.04-.78,1.92-1.29,2.6-.52.7-1.16,1.27-1.88,1.68-.73.41-1.62.7-2.66.85-1,.15-2.25.22-3.7.22-1.37,0-2.66-.32-3.83-.96-1.15-.63-2.17-1.44-3.04-2.41-.87-.97-1.57-2.11-2.05-3.38-.5-1.27-.75-2.56-.74-3.82,0-2.22.1-4.82.28-7.75.17-2.94.56-6.06,1.16-9.26.59-3.19,1.43-6.39,2.5-9.52,1.07-3.14,2.52-5.99,4.3-8.46,1.79-2.49,4.04-4.52,6.68-6.07,2.66-1.54,5.87-2.33,9.54-2.33s6.85.78,9.46,2.33c2.58,1.54,4.76,3.57,6.46,6.07,1.69,2.47,3.03,5.28,3.99,8.36.95,3.04,1.68,6.12,2.14,9.16.47,3.02.76,5.95.88,8.71ZM245.92,48.03c.52-1.02.78-2.15.79-3.37,0-1.78-.05-4.08-.15-6.83-.11-2.72-.4-5.61-.87-8.6-.46-2.98-1.16-6.02-2.11-9.01-.92-2.98-2.23-5.7-3.86-8.09-1.62-2.37-3.69-4.32-6.14-5.78-2.45-1.45-5.46-2.19-8.94-2.19s-6.53.74-9.03,2.19c-2.52,1.47-4.66,3.41-6.38,5.79-1.72,2.39-3.12,5.14-4.16,8.2-1.05,3.08-1.88,6.23-2.46,9.37-.58,3.15-.97,6.23-1.14,9.13-.18,2.91-.27,5.49-.28,7.69,0,1.13.22,2.29.67,3.45.45,1.16,1.08,2.2,1.88,3.08.79.89,1.72,1.63,2.77,2.2,1.02.55,2.14.83,3.35.83,1.41,0,2.61-.07,3.56-.22.92-.13,1.69-.38,2.31-.73.6-.35,1.14-.82,1.58-1.41.44-.6.83-1.39,1.16-2.33.39-1.07.76-2.09,1.13-3.1.37-1.03.8-1.97,1.27-2.77.5-.85,1.13-1.55,1.89-2.06.77-.54,1.73-.81,2.83-.81,2.22,0,3.59.46,4.19,1.41.55.88.83,2.18.82,3.97,0,.91.09,1.69.29,2.33.19.6.5,1.08.95,1.45.47.39,1.15.67,2.03.87.92.21,2.08.31,3.48.31,1.19,0,2.35-.21,3.46-.62,1.12-.41,2.13-.99,3.03-1.71.87-.72,1.59-1.6,2.11-2.64" fill="#737373" stroke-width="0"/>
        <path d="M228.36,25.78c.32.83.54,1.74.66,2.74.12.99.18,1.92.18,2.79,0,1.79-.39,3.15-1.14,4.06-.77.92-1.79,1.4-3.05,1.4-.72,0-1.33-.28-1.8-.82-.43-.48-.76-1.08-.99-1.79-.22-.67-.39-1.42-.49-2.22-.1-.77-.14-1.52-.14-2.22s.02-1.41.08-2.18c.05-.8.18-1.55.39-2.23.21-.71.53-1.32.93-1.8.45-.55,1.08-.83,1.85-.83.86,0,1.6.31,2.2.94.54.57.98,1.29,1.31,2.14ZM227.29,34.73c.6-.72.91-1.87.91-3.42,0-.83-.06-1.72-.17-2.67-.11-.92-.32-1.75-.6-2.5-.28-.73-.66-1.34-1.12-1.81-.4-.43-.89-.64-1.47-.64-.48,0-.82.14-1.09.47-.32.38-.56.86-.73,1.44-.19.61-.3,1.28-.35,2.01-.06.75-.08,1.46-.08,2.12s.04,1.36.13,2.09c.09.74.24,1.41.44,2.03.2.57.45,1.06.79,1.44.29.32.63.48,1.06.48.95,0,1.7-.34,2.28-1.04" fill="#737373" stroke-width="0"/>
        <path d="M205,56.49l-2.61-3.49c.19.25.38.49.59.72.87.97,1.89,1.78,3.04,2.41,1.17.64,2.46.96,3.83.96,1.46,0,2.71-.07,3.7-.22,1.04-.15,1.93-.44,2.66-.85.73-.41,1.36-.98,1.88-1.68.51-.68.95-1.56,1.29-2.6l2.61,3.49c-.35,1.04-.78,1.92-1.29,2.6-.52.7-1.16,1.27-1.88,1.68-.73.41-1.62.7-2.66.85-1,.15-2.25.22-3.7.22-1.37,0-2.66-.32-3.83-.96-1.15-.63-2.17-1.44-3.04-2.41-.21-.23-.4-.47-.59-.72Z" fill="#737373" stroke-width="0"/>
        <path d="M240,10.8l2.61,3.49c.19.25.37.5.54.76,1.69,2.47,3.03,5.28,3.99,8.36.95,3.04,1.68,6.12,2.14,9.16.47,3.02.76,5.95.88,8.71l-2.61-3.49c-.12-2.76-.4-5.69-.88-8.71-.47-3.03-1.19-6.11-2.14-9.16-.96-3.08-2.3-5.89-3.99-8.36-.18-.26-.36-.51-.54-.76Z" fill="#737373" stroke-width="0"/>
      </g>
    </g>
  </g>
</svg>